<?xml version="1.0" encoding="UTF-8" standalone="no"?>
<svg
   viewBox="5.576 -0.223 964 603.00001"
   version="1.1"
   id="svg15490"
   sodipodi:docname="header_transparent_square.svg"
   inkscape:version="1.1.2 (0a00cf5339, 2022-02-04)"
   width="964"
   height="603"
   xmlns:inkscape="http://www.inkscape.org/namespaces/inkscape"
   xmlns:sodipodi="http://sodipodi.sourceforge.net/DTD/sodipodi-0.dtd"
   xmlns="http://www.w3.org/2000/svg"
   xmlns:svg="http://www.w3.org/2000/svg">
  <defs
     id="defs15494" />
  <sodipodi:namedview
     id="namedview15492"
     pagecolor="#ffffff"
     bordercolor="#666666"
     borderopacity="1.0"
     inkscape:pageshadow="2"
     inkscape:pageopacity="0"
     inkscape:pagecheckerboard="0"
     showgrid="false"
     inkscape:zoom="0.93780496"
     inkscape:cx="437.72428"
     inkscape:cy="323.62806"
     inkscape:window-width="1920"
     inkscape:window-height="976"
     inkscape:window-x="1920"
     inkscape:window-y="27"
     inkscape:window-maximized="1"
     inkscape:current-layer="svgg"
     inkscape:snap-global="false">
    <inkscape:grid
       type="xygrid"
       id="grid16965"
       units="px"
       spacingx="1"
       spacingy="1" />
  </sodipodi:namedview>
  <g
     id="svgg"
     transform="matrix(-1,0,0,1,399.99999,0)">
    <path
       id="path0"
       d="m 297.51261,440.28911 c 9.18644,3.28347 13.36566,14.22494 8.61621,22.5469 -1.0676,1.86958 -2.17685,3.83291 -2.46588,4.36409 -1.34099,2.46066 6.72841,21.41163 14.43327,33.89977 3.47355,5.62697 6.15294,10.70453 7.55902,14.32129 0.55463,1.43213 1.26287,3.18975 1.57012,3.90581 0.30726,0.71607 1.24725,3.35118 2.08832,5.85871 3.60636,10.73576 3.58293,10.68628 4.58802,9.77493 2.2263,-2.01278 2.11694,-6.1816 -0.20051,-7.54603 -1.98937,-1.17434 -1.94768,-2.22109 0.17967,-4.52811 4.4422,-4.81716 9.50933,-4.29119 15.2066,1.58314 4.05943,4.18441 4.52292,5.92381 1.58576,5.92381 -2.53618,0 -2.86946,0.30465 -2.86946,2.6299 0,3.60897 0.44525,4.10111 5.42386,5.99671 1.18736,0.45047 9.4312,2.80959 11.86322,3.39546 1.4712,0.35412 1.58315,1.16913 0.3958,2.91632 -0.96865,1.42431 -1.01812,1.75502 -0.65358,4.25994 0.21613,1.49463 0.2812,4.31461 0.14581,6.27012 -0.24736,3.4996 -0.23173,3.5725 1.065,4.99161 0.72386,0.78898 2.14037,2.5674 3.14806,3.95007 l 1.83053,2.51272 1.73418,-0.3437 c 5.18169,-1.02593 10.25143,0.64838 13.64427,4.50209 9.34789,10.62118 3.47096,25.87986 -9.99626,25.94757 -3.60635,0.0182 -4.15055,-0.1119 -7.55382,-1.82531 -8.31676,-4.18964 -11.31121,-15.82373 -5.82745,-22.64585 1.53629,-1.91125 1.52066,-2.9476 -0.0703,-4.9734 -1.4868,-1.89041 -2.73406,-1.4113 -5.78578,2.22631 -1.45036,1.72897 -4.02039,4.20525 -5.71289,5.50458 -5.71549,4.38752 -6.0592,6.16595 -1.41912,7.34812 2.50752,0.63795 3.31734,2.08049 2.03624,3.62458 -0.67962,0.81762 -13.02976,0.57807 -14.63897,-0.2812 -0.95822,-0.51298 -1.20298,-1.72898 -0.49472,-2.43984 0.58326,-0.58066 0.76292,-3.15068 0.23435,-3.31213 -0.23955,-0.0728 -0.49736,0.35675 -0.57026,0.95302 -0.23955,1.89823 -1.90604,6.25189 -2.85644,7.45488 -2.98665,3.79645 -3.71833,4.53854 -5.68686,5.77278 -13.12349,8.23084 -29.18677,-4.70519 -23.05727,-18.56819 3.20798,-7.25437 12.88656,-10.25143 21.57046,-6.68154 3.65845,1.50245 3.62459,1.50765 5.21296,-0.67178 3.64281,-4.99943 3.56729,-5.53323 -0.78377,-5.53323 -3.81208,0 -5.51499,-0.73428 -6.35344,-2.74188 -0.82543,-1.97114 -1.24464,-7.55121 -0.71607,-9.51714 0.23956,-0.89574 0.61453,-2.32266 0.83064,-3.17152 0.21873,-0.85146 1.4868,-3.26786 2.82259,-5.37438 3.24702,-5.1218 3.18973,-5.32491 -1.65084,-5.79882 -1.40608,-0.138 -2.76273,-0.45827 -3.0153,-0.71086 -0.25256,-0.25258 -0.71086,-0.45827 -1.01812,-0.45827 -2.87204,0 -10.69928,-7.46791 -16.42519,-15.66748 -4.68957,-6.71799 -6.20764,-8.23343 -10.32956,-10.30352 -4.64009,-2.33308 -11.09509,-10.63941 -11.14717,-14.34732 -0.0129,-0.95561 -1.33576,-2.58825 -2.61167,-3.2262 -0.63275,-0.31508 -1.15091,-1.02591 -1.28111,-1.76282 -0.2031,-1.13789 -0.52858,-1.32536 -4.15838,-2.40076 -3.41888,-1.01031 -5.42125,-1.89301 -10.60034,-4.67135 -6.86642,-3.68446 -8.97815,-8.80108 -6.03839,-14.63375 1.34881,-2.67938 2.78095,-3.76 5.37439,-4.05161 2.52575,-0.28382 2.76793,-0.84887 1.49723,-3.47358 -4.41357,-9.10051 7.88191,-16.0893 15.2066,-8.64224 2.34087,2.38255 2.62208,2.27059 2.62208,-1.04154 0,-7.36634 7.25439,-13.3214 13.50368,-11.08988 m 0.539,29.56955 c -0.138,0.35932 -0.0624,0.89832 0.17186,1.19257 0.23434,0.29683 0.91397,1.41649 1.51284,2.48929 5.60873,10.05355 8.12407,13.07925 6.36127,7.65279 -2.25236,-6.93412 -7.10857,-13.7771 -8.04597,-11.33465 m -265.618181,3.3746 c 6.397708,3.5595 9.123959,7.68664 5.074942,7.68664 -2.213289,0 -2.572623,0.76292 -1.609191,3.43971 0.700441,1.95029 0.695233,2.00497 -0.359334,3.52563 -0.585872,0.84887 -1.067587,2.06227 -1.067587,2.69762 0,1.36963 -1.057171,2.05444 -3.174116,2.05444 -4.418767,0 -4.759875,8.41832 -0.552022,13.61303 0.992075,1.22382 3.288688,4.3745 5.10619,6.99921 3.848519,5.56186 6.030561,7.90274 8.910441,9.5562 4.627076,2.65855 7.392386,7.01481 5.007241,7.89493 -2.148191,0.79158 -1.804482,4.12974 1.645647,15.96693 0.208309,0.71606 0.61972,2.24193 0.911352,3.39024 0.674404,2.65334 0.851467,2.72885 7.09815,3.05172 16.781939,0.8697 28.327498,11.62629 26.239194,24.45034 -2.317444,14.24318 -11.850211,21.8595 -25.111719,20.05761 C 39.58628,594.77147 31.542926,577.5547 43.002556,560.0541 c 5.051507,-7.71526 0.932184,-6.44198 -7.876706,2.43202 l -4.335442,4.36929 1.872182,1.70814 c 3.556886,3.25222 2.122153,5.04629 -2.986639,3.73653 -6.215437,-1.59095 -9.092711,0.84366 -9.092711,7.69966 0,2.06227 -1.814899,3.33816 -4.752065,3.33816 -2.973618,0 -2.986636,0.0208 -1.528469,2.38775 2.916333,4.73383 -0.947809,4.89526 -4.3354436,0.17966 l -1.5232639,-2.11955 -2.0674713,0.24998 c -1.8201052,0.21871 -2.2966144,0.51296 -4.0021481,2.48669 -7.2674005,8.41311 -14.7717531,11.90489 -22.0782111,10.27487 -9.163018,-2.04405 -15.831527,-6.98359 -20.586193,-15.24307 l -1.148305,-1.99976 -5.114002,-0.22652 c -4.957768,-0.21873 -12.626164,0.17184 -14.980061,0.76292 -0.835842,0.21092 -1.369635,0.80981 -1.932072,2.16642 -1.195176,2.8903 -2.273179,3.31211 -8.168339,3.18975 l -4.996825,-0.10412 -1.408695,1.52587 c -0.929576,1.0077 -2.080489,1.69511 -3.377214,2.0206 -1.67428,0.41662 -2.049249,0.71605 -2.515323,2.005 -3.200175,8.84794 -17.622989,11.37369 -27.197419,4.75725 -1.66128,-1.1483 -5.29107,-4.96037 -5.84049,-6.13731 -0.30464,-0.65359 -0.74991,-1.56233 -0.98947,-2.02323 -1.23945,-2.38253 -2.46846,-9.90512 -2.4841,-15.2196 -0.004,-1.90864 -0.2031,-6.40031 -0.43744,-9.98065 -1.73158,-26.35896 -1.77582,-25.89025 2.96321,-30.23612 3.9735,-3.64022 8.34281,-5.26764 16.76891,-6.24409 4.765079,-0.55201 15.948703,3.03612 23.002579,7.37678 1.192571,0.73428 2.663757,1.58836 3.267855,1.8982 6.322196,3.22621 12.480348,14.40461 14.51397,26.34075 0.723875,4.24692 0.552022,5.47074 -0.846258,6.00715 -1.322765,0.50774 -0.742102,1.58314 0.856673,1.58314 3.017886,0 3.994337,2.12736 2.109135,4.59844 -1.781047,2.33306 -0.421827,2.4919 11.34506,1.32537 l 5.20774,-0.51817 0.33069,-3.02831 c 1.851352,-16.91995 19.875336,-26.21056 35.6886369,-18.39374 l 2.6038705,1.28631 1.8956172,-2.07269 c 6.3925096,-6.99137 4.9421538,-17.44592 -2.42159,-17.47454 -2.8382171,-0.008 -3.5985466,-1.11187 -3.5881314,-5.18692 0.010385,-4.43961 1.3774472,-12.65222 2.5700195,-15.43313 0.2031009,-0.47912 0.6171177,-1.55192 0.9165619,-2.38774 0.6926286,-1.9373 5.147851,-8.57717 9.3166447,-13.88645 1.8070868,-2.30443 4.1245302,-5.94204 5.2494017,-8.24645 2.530961,-5.1817 2.934561,-5.64261 4.93954,-5.64261 2.017999,0 3.447523,-1.28889 2.398164,-2.1612 -2.109134,-1.74979 1.346201,-7.08772 5.791006,-8.94427 2.19246,-0.91657 6.444578,-0.72129 8.433934,0.38274 m -326.007049,4.64791 c 6.61904,1.13528 11.7096,6.04098 9.03804,8.71255 -0.53901,0.53899 -0.79419,1.18475 -0.63014,1.60919 1.86437,4.85884 0.0156,9.47548 -3.898,9.72284 l -2.16641,0.13542 0.0261,2.16901 c 0.11454,9.87649 3.9058,16.21689 15.59717,26.06214 6.7232,5.66341 7.4028,6.59558 5.64258,7.74912 -1.47379,0.96602 -1.37224,1.54149 0.60411,3.41628 1.78104,1.68468 2.12217,3.28607 2.19766,10.28007 0.0443,4.16879 2.45025,4.03338 5.66864,-0.32289 4.08285,-5.5202 4.85361,-9.29061 2.37992,-11.62628 -1.89302,-1.78364 -1.90082,-2.67157 -0.052,-5.56187 3.13766,-4.90568 8.10325,-5.94724 12.80583,-2.68718 3.09341,2.14299 4.6375,6.78568 2.36172,7.10856 -1.18217,0.16925 -1.5441,1.07278 -0.99991,2.50233 0.62233,1.63524 0.51298,4.2391 -0.21611,5.20253 -1.51805,2.00497 1.24466,6.2675 4.06464,6.2675 2.0883,0 13.49847,-13.54012 13.49847,-16.01901 0,-0.62752 0.13539,-0.65877 -3.46055,0.82544 -3.27046,1.34881 -3.91621,1.35401 -3.91621,0.0366 0,-2.1534 3.18974,-4.37188 6.28313,-4.37188 2.64033,0 2.79134,-0.5937 1.08583,-4.2912 -1.52068,-3.30171 -1.44777,-3.95526 0.45306,-3.95526 2.2966,0 4.2417,2.2237 4.58282,5.23636 0.29942,2.64034 0.50774,2.8877 1.81227,2.1482 2.05707,-1.16653 6.31438,-2.22631 6.67372,-1.66127 1.14832,1.8123 -3.372,5.55926 -6.70756,5.55926 -1.58574,0 -2.14038,0.62234 -1.55191,1.73678 1.90082,3.59074 2.4919,6.50969 1.32277,6.50969 -1.10404,0 -3.37722,-1.89824 -4.21828,-3.52305 -0.88531,-1.71333 -0.99468,-1.65346 -3.33555,1.75501 -2.01019,2.92676 -2.58303,4.97079 -1.65606,5.91339 0.68743,0.70043 -0.67441,2.00758 -2.88507,2.76531 -2.49712,0.85929 -3.8928,1.617 -3.5673,1.94249 0.6145,0.61452 6.99658,1.11185 14.35512,1.11967 8.02512,0.006 8.09023,0.0155 8.33237,0.98425 0.55723,2.23933 0.86189,30.22572 0.33591,30.86107 -0.39839,0.48172 -1.70293,0.62492 -5.60092,0.62232 -8.05377,-0.004 -7.25439,-0.26039 -7.8715,2.50754 -2.79656,12.49595 -17.21678,18.76868 -28.41604,12.36055 -4.73904,-2.71062 -7.90535,-7.41582 -9.14738,-13.58438 l -0.24217,-1.19518 h -11.27475 c -12.65482,0 -12.05072,-0.19529 -10.11602,3.26787 l 1.16132,2.07528 -1.21081,1.04154 c -1.85915,1.59617 -6.92368,0.11455 -8.38706,-2.45544 -0.61451,-1.078 -1.03113,-1.32017 -2.2862,-1.32278 -0.84625,0 -2.66897,-0.29684 -4.05162,-0.65616 -3.02309,-0.789 -3.08038,-0.75774 -4.41096,2.25495 -3.57251,8.0772 -15.6128,13.68332 -24.89298,11.58722 -9.09533,-2.05446 -13.72501,-9.0745 -13.70677,-20.7815 0.0233,-14.12858 9.86866,-21.00018 24.82268,-17.32615 l 4.55417,1.11707 1.08059,-1.01029 c 2.4841,-2.32006 3.38504,-4.62188 3.38504,-8.66308 v -3.74697 l -2.19247,-2.32786 c -4.35106,-4.62187 -8.00689,-10.51182 -8.00689,-12.90216 0,-3.41889 3.68708,-12.04031 8.82192,-20.63047 4.88225,-8.16835 5.14784,-9.2151 2.84343,-11.23571 -1.69513,-1.48681 -1.55713,-2.57783 0.91656,-7.35592 1.90082,-3.67407 2.06227,-4.5099 1.10403,-5.77799 -0.94781,-1.25246 -0.8072,-2.28358 0.61711,-4.5047 3.08039,-4.79634 7.13202,-6.61382 12.647,-5.66863 m 593.56252,1.64046 c 0.39837,3.89798 4.87444,12.70167 6.43935,12.67301 1.76803,-0.0313 1.45817,-1.43212 -1.44253,-6.50185 -0.47911,-0.83585 -1.62222,-2.93977 -2.54398,-4.67395 -1.72897,-3.26005 -2.69502,-3.84852 -2.45284,-1.49721 m -768.06344,-0.49475 c 4.80675,0.85146 10.74358,7.62153 7.05128,8.04856 -1.18216,0.13541 -1.19518,0.17186 -1.43214,4.04121 -0.35152,5.77799 -1.00248,6.8612 -4.54896,7.59809 -4.85881,1.0077 -4.18441,2.84342 4.02038,10.94145 3.21057,3.17151 6.06442,5.96026 6.34043,6.19722 5.22335,4.5151 7.91315,6.50447 13.1834,9.74888 3.6402,2.23674 5.03327,4.09589 4.70258,6.26231 -0.66138,4.299 -0.7395,6.14514 -0.32809,7.6033 0.24215,0.85667 0.67179,2.63252 0.95302,3.94486 0.83844,3.92664 0.82802,3.9058 2.20028,3.9058 1.58834,0 1.76801,-1.77321 0.4062,-4.00474 -2.14038,-3.51263 -0.71346,-8.36102 2.93976,-9.98584 5.38221,-2.39557 13.61824,0.31506 10.30091,3.39024 -0.89574,0.83062 -1.10406,1.32278 -0.86708,2.04925 0.17184,0.52597 0.29163,1.58314 0.26296,2.34868 -0.0443,1.28892 0.0913,1.43213 1.79408,1.87219 1.01291,0.2604 2.18465,0.57545 2.60126,0.69523 0.82283,0.23956 1.05979,2.09612 0.32551,2.54918 -0.58328,0.36195 -0.54943,4.42398 0.0624,7.07212 0.36195,1.56752 0.36716,2.51534 0.0208,3.51003 -0.7343,2.10912 0.78376,2.94236 4.15837,2.28619 1.36704,-0.26821 3.65324,-0.58068 5.08276,-0.69785 2.53616,-0.2057 2.64552,-0.2682 4.73644,-2.71843 3.91623,-4.59323 10.41026,-10.71754 14.8004,-13.95934 6.23104,-4.60105 7.53039,-6.54354 4.39533,-6.56697 -6.19201,-0.0443 4.30159,-6.4628 11.87885,-7.26481 1.0728,-0.11189 2.47107,-0.57283 3.10381,-1.02331 1.37745,-0.97645 2.37732,-1.03895 3.21839,-0.19789 0.90615,0.90615 0.80199,1.22381 -1.11446,3.40066 -0.95563,1.08321 -1.73678,2.25494 -1.73678,2.59866 0,0.3437 0.78115,0.97905 1.73678,1.40869 2.64292,1.19257 1.86176,2.17161 -4.27816,5.36657 l -3.53344,1.83834 -0.052,2.47367 c -0.026,1.36182 -0.0753,2.75749 -0.10668,3.10381 -0.0338,0.34632 -0.83845,0.83325 -1.79667,1.08322 -2.80697,0.73688 -3.3668,1.44776 -4.73384,6.03316 -0.88791,2.9632 -0.63535,3.31992 2.3409,3.31992 4.33805,0 4.42916,1.88262 0.23172,4.77031 -3.26525,2.24454 -2.05705,3.86152 3.54908,4.74684 11.46745,1.80709 16.43043,6.87683 16.38617,16.73768 -0.0573,12.38921 -11.26695,19.75817 -21.75534,14.30046 -9.22031,-4.79894 -10.84251,-12.32152 -5.15827,-23.94519 3.96049,-8.10324 2.72885,-8.08501 -2.78874,0.0416 -2.12737,3.13507 -4.91351,7.16326 -6.192,8.95211 l -2.32525,3.25484 h -16.683 c -9.17603,0 -21.258,-0.24997 -26.8459,-0.55462 -10.72795,-0.58587 -11.64191,-0.4713 -9.82961,1.24985 1.51545,1.43735 0.95042,5.59833 -0.76032,5.59833 -0.56765,0 -6.30659,-3.01789 -8.36625,-4.40054 l -1.78104,-1.19257 0.34371,-2.08571 c 0.19008,-1.1483 0.34631,-2.77051 0.35152,-3.60375 l 0.006,-1.52067 -0.65616,1.21602 c -0.36195,0.6666 -1.01553,2.32786 -1.45036,3.6923 -2.45806,7.69182 -6.33523,11.23047 -15.08163,13.76663 -13.47241,3.90321 -23.83321,-2.65332 -26.61674,-16.84181 -1.02853,-5.24942 2.11173,-13.72241 6.75182,-18.20366 l 1.6717,-1.61701 -1.203,-2.52054 c -2.72103,-5.68944 -2.41899,-5.91599 8.8115,-6.62163 7.03306,-0.44268 12.50379,-1.03634 12.86572,-1.39567 1.24725,-1.24728 -5.78578,-1.97116 -11.96479,-1.23166 -2.26535,0.27082 -5.84829,0.68223 -7.96001,0.91397 -4.77291,0.52338 -3.56991,-0.28641 -12.88656,8.66308 -4.34847,4.17923 -8.75942,8.38446 -9.80357,9.34788 -2.12995,1.97115 -2.27057,2.60387 -1.03113,4.63752 1.84875,3.0309 -0.8046,5.40563 -4.46824,3.99954 -3.96048,-1.52067 -4.30159,4.5229 -0.45307,8.02251 2.15601,1.96331 2.26277,2.30963 0.90875,2.95799 -2.22892,1.06759 -2.61169,0.96604 -8.03555,-2.0961 -2.12476,-1.2004 -2.6872,-0.85408 -2.69761,1.67167 -0.004,0.77857 -0.18226,1.75502 -0.39317,2.16903 -0.21353,0.41401 -0.74991,1.49984 -1.1952,2.41117 -4.09327,8.4053 -17.19595,10.97011 -24.11183,4.72083 -12.93602,-11.68616 -1.16131,-32.54317 15.32899,-27.15057 5.15826,1.68733 7.76474,-3.71571 3.67926,-7.62932 -1.94247,-1.85916 -1.95029,-1.7524 0.32028,-4.72082 3.65584,-4.78329 6.2545,-12.5246 4.90048,-14.58948 -0.95563,-1.46077 -0.89313,-2.31485 0.37757,-5.1921 1.33318,-3.01009 1.341,-3.29651 0.0965,-3.29651 -2.91634,0 -3.74959,-2.695 -1.62743,-5.27023 3.59334,-4.35889 10.85813,-4.60885 15.12589,-0.52079 2.10393,2.01802 2.17682,2.89812 0.26037,3.11164 -1.84614,0.2083 -2.05446,0.5989 -1.97112,3.68447 0.0703,2.55961 -0.0129,2.84343 -1.04937,3.52303 -3.28868,2.15602 2.09873,8.75422 9.06928,11.10811 l 2.87989,0.97385 4.23128,-1.33318 c 6.10087,-1.91644 7.04867,-2.11696 13.77968,-2.8877 3.34076,-0.38276 7.16064,-0.8853 8.48862,-1.11705 1.32797,-0.23175 2.98663,-0.42703 3.68969,-0.43224 0.70043,-0.004 1.76282,-0.39057 2.35909,-0.85668 l 1.08583,-0.84884 -1.21602,-0.008 c -3.26264,-0.0261 -5.06193,-2.64294 -5.97066,-8.68912 -0.7968,-5.28066 -0.82282,-25.47625 -0.0365,-27.16359 0.32287,-0.69522 0.90355,-1.92164 1.29153,-2.72885 0.38796,-0.80459 1.92165,-2.82519 3.41365,-4.48647 5.26243,-5.86912 6.27272,-10.2957 2.51276,-11.00133 -1.48683,-0.27862 -1.51288,-0.3229 -1.51288,-2.42681 0,-4.49949 7.50957,-9.30623 13.01936,-8.33238 m 705.34663,3.52564 c 5.22336,2.86685 7.27521,5.69207 4.80934,6.62946 -1.0754,0.40878 -1.11444,0.53639 -0.79937,2.48668 0.43223,2.66636 0.42181,2.95279 -0.22916,5.52541 -0.8827,3.48918 -1.2186,4.12192 -2.19766,4.12192 -3.09861,0 -3.12204,0.90874 -0.1406,5.53062 6.48363,10.05095 17.27928,21.03146 22.57815,22.96614 1.4243,0.52077 4.46303,2.7601 4.93173,3.635 1.42172,2.65333 -2.26798,3.77821 -5.79102,1.76282 -3.72613,-2.13257 -4.21045,-1.84355 -4.18442,2.4867 0.0546,8.69952 6.50447,17.86514 12.57148,17.86514 2.22112,0 9.2802,4.12194 12.00384,7.00962 13.49588,14.31348 -0.10668,40.82607 -18.0318,35.14964 -7.30645,-2.31223 -14.13639,-10.87898 -15.3576,-19.26083 -0.69785,-4.78331 -1.11185,-5.13743 -5.78842,-4.96557 -4.38491,0.16144 -4.49166,0.26298 -4.49948,4.28856 -0.0156,6.2649 -2.12476,8.79328 -7.11116,8.51987 l -2.66116,-0.14582 v 1.95289 1.95292 l -3.75478,0.12497 c -3.22879,0.10669 -3.89538,0.26301 -4.7729,1.11967 -16.33667,15.92526 -38.37842,6.64768 -36.36564,-15.30815 0.62753,-6.84559 4.42919,-12.24599 11.25913,-15.99816 6.09047,-3.34077 6.18158,-3.92664 0.65879,-4.17401 -3.87717,-0.17186 -4.39014,-0.54941 -4.74425,-3.47096 -0.11978,-0.98166 -0.45568,-3.73656 -0.74731,-6.1243 -0.54684,-4.45522 -1.17436,-6.07484 -2.52577,-6.50446 -0.54681,-0.17187 -0.92436,-1.03375 -1.28891,-2.94499 -0.28383,-1.48681 -0.83323,-3.71312 -1.22121,-4.94994 -0.92436,-2.94499 -0.41663,-3.69491 2.24974,-3.33037 2.49191,0.34111 3.40065,-1.93986 1.07019,-2.67937 -1.55451,-0.49473 -0.87489,-4.46823 1.09885,-6.44198 3.21838,-3.22098 8.4209,-2.82258 12.50377,0.95562 1.47639,1.36703 1.4868,1.81489 0.0728,3.14547 -1.01549,0.95042 -1.09622,1.26288 -0.84625,3.26004 0.32287,2.58304 -0.2656,4.21047 -1.77063,4.89528 -1.52587,0.69525 -1.28632,1.53108 1.13267,3.96309 1.19258,1.19778 2.16903,2.37735 2.16903,2.61689 0,0.44788 2.02321,3.72092 2.83041,4.58282 0.815,0.86971 4.08808,2.78093 4.76248,2.78093 0.36714,0 1.00508,0.16404 1.41911,0.36454 0.41401,0.1979 1.33056,0.64055 2.03623,0.98165 1.43212,0.69004 1.86437,1.78366 1.92947,4.86664 0.0833,4.05683 1.72636,4.87705 4.5099,2.24974 3.15588,-2.97622 -0.004,-8.04595 -7.6059,-12.20172 -5.33793,-2.91895 -6.91329,-6.09566 -5.56969,-11.2253 5.84568,-22.32037 8.45478,-26.69225 18.61768,-31.20736 2.64814,-1.17695 3.42929,-5.04892 1.08581,-5.38742 -2.51534,-0.36193 -3.32774,-4.20523 -1.66909,-7.88452 2.40339,-5.33272 7.63455,-6.7336 13.37347,-3.58551 m 58.28765,1.17173 c -1.04678,1.59617 -0.8645,2.72365 0.81759,5.06452 0.83585,1.16133 1.51807,2.26278 1.51807,2.44243 0,0.62754 6.47582,6.61384 7.15543,6.61384 1.40607,0 0.93478,-3.37202 -0.66659,-4.7755 -0.13801,-0.11978 -1.0051,-1.4868 -1.92946,-3.03612 -4.08027,-6.84817 -5.61916,-8.25685 -6.89504,-6.30917 m -278.522682,2.25188 c -1.255063,1.13788 -1.067587,2.91632 0.273407,2.58044 2.9606,-0.74212 4.101094,-1.89303 2.984035,-3.01008 -0.541606,-0.5416 -2.460657,-0.28904 -3.257442,0.42964 m 266.537312,1.59355 c 0,1.34361 5.33273,4.45783 6.7206,3.92405 1.08059,-0.41402 1.62482,-1.76543 1.10665,-2.73927 -0.75253,-1.40349 -7.82725,-2.47629 -7.82725,-1.18478 m 26.0413,4.41878 c 0.27341,0.83325 0.6666,1.51545 0.86709,1.51545 0.2031,0 0.43745,0.3411 0.52078,0.76033 0.0808,0.41661 0.26819,0.56243 0.41662,0.32549 0.14582,-0.23957 -0.24998,-1.54149 -0.88011,-2.89289 -1.18737,-2.55181 -1.79928,-2.35912 -0.92438,0.29162 m -15.9513,-0.78117 c -1.17694,2.53617 0.18487,5.56448 3.06476,6.81174 0.76032,0.33069 2.16642,1.40347 3.11943,2.38772 1.70293,1.75242 6.87683,5.79885 8.79587,6.87944 1.71855,0.96865 1.03634,-0.16925 -1.66908,-2.77573 -1.45036,-1.39828 -3.9032,-4.42657 -5.44728,-6.73099 -2.47368,-3.68188 -6.16597,-7.75433 -7.02266,-7.74391 -0.16403,0.002 -0.5416,0.52858 -0.84104,1.17173 m -7.934,3.69752 c 1.22643,6.24145 4.44742,10.24882 10.68108,13.29534 2.018,0.98687 3.84592,1.79406 4.06204,1.79406 0.46869,0 3.49959,3.46576 3.49959,4.00215 0,0.32809 3.70532,5.86131 7.00443,10.45974 4.07764,5.68165 8.77764,9.61089 12.42567,10.38944 3.38501,0.72128 3.27825,-1.0155 -0.25259,-4.21826 -0.88272,-0.79939 -2.18725,-2.26016 -2.90331,-3.24443 -0.71606,-0.98686 -1.72116,-2.29921 -2.23412,-2.92153 -0.51297,-0.61974 -1.53629,-2.33307 -2.27579,-3.80425 -1.6144,-3.21059 -3.07516,-4.6349 -7.58248,-7.395 -3.81726,-2.33567 -11.41795,-9.45725 -18.28176,-17.12304 -4.6427,-5.18952 -4.93954,-5.27804 -4.14276,-1.23422 m 19.97689,-1.21082 c 0,0.34631 0.16926,0.73169 0.37758,0.85928 0.20831,0.12758 0.51035,1.24464 0.67438,2.48149 0.45308,3.40586 2.49713,6.55654 3.74958,5.7832 0.79419,-0.48954 0.21872,-5.06714 -0.88011,-7.02526 -1.2134,-2.156 -3.92143,-3.60634 -3.92143,-2.09871 m 6.07743,7.72308 c 0,3.48918 5.65561,15.217 6.79089,14.08172 0.55202,-0.55202 -4.63748,-14.95922 -5.6009,-15.55291 -0.78899,-0.48952 -1.18999,0.008 -1.18999,1.47119 m -13.98797,0.57285 c 1.53628,2.74188 8.30633,8.32196 13.66249,11.25392 5.31451,2.91113 3.90062,1.4113 -4.88225,-5.17388 -2.98403,-2.23673 -5.99932,-4.67135 -6.69976,-5.41085 -1.354,-1.42692 -2.75751,-1.87739 -2.08048,-0.66919 m 21.57043,7.65537 c 1.64306,5.87434 7.54604,17.2923 7.95223,15.38628 0.11979,-0.56245 -1.16654,-4.95519 -2.05185,-7.00702 -0.20831,-0.47912 -0.71085,-1.65085 -1.11966,-2.60387 -3.72613,-8.69953 -6.55914,-12.12102 -4.78072,-5.77539 M 135.37093,512.033 c 4.26253,1.15872 8.15272,6.89765 5.7962,8.5485 -0.80198,0.56245 -0.89313,0.92437 -0.65878,2.62991 0.22915,1.6769 0.13801,2.05966 -0.58848,2.51535 -0.55461,0.3463 -0.86187,1.01029 -0.86187,1.86437 0,1.69511 -0.68741,2.36951 -2.4242,2.36951 -1.68471,0 -1.97373,1.1457 -1.46338,5.79102 0.49734,4.54372 2.46847,5.64518 10.92323,6.10345 3.95008,0.21353 5.87173,0.75773 6.26231,1.77584 0.37756,0.98948 -0.65097,1.95292 -2.0883,1.95292 -1.99457,0 -3.54387,1.93987 -3.21318,4.02037 1.06498,6.64508 0.93218,6.54092 6.54353,5.27543 7.99908,-1.80449 8.41572,-1.59616 8.78806,4.38752 0.48173,7.71007 -0.84886,10.18634 -5.47594,10.18634 -4.3771,0 -3.34858,2.10654 2.84083,5.83006 11.93354,7.17626 6.00712,25.95799 -6.86121,21.75013 -9.8999,-3.23922 -13.21202,-14.34992 -6.27271,-21.03406 2.71062,-2.60908 2.28099,-6.54613 -0.71347,-6.54613 -2.43463,0 -8.22302,8.38967 -8.41049,12.18872 -0.15363,3.06736 -0.17967,3.11422 -1.78885,3.17152 -1.07801,0.0417 -1.18999,0.18748 -1.09363,1.43993 0.15362,1.98414 -0.91137,2.43462 -4.87705,2.06486 -3.04393,-0.2864 -3.20015,-0.25516 -3.70532,0.72388 -2.05445,3.99435 -7.03825,6.317 -12.23818,5.70508 -1.90343,-0.22393 -2.17944,-0.12757 -3.79904,1.33579 -3.35118,3.0283 -7.22314,1.79146 -7.70225,-2.45807 -0.23435,-2.06486 0.73429,-4.21043 1.89821,-4.21043 0.95042,0 1.10145,-0.92959 0.62755,-3.86416 -0.74992,-4.66353 0.61191,-9.28278 3.47356,-11.77209 2.46847,-2.1482 4.76247,-2.41378 14.06349,-1.61701 1.72897,0.14843 1.86438,-0.8827 0.64317,-4.9864 -1.22903,-4.14014 -1.37746,-4.38492 -2.85646,-4.69999 -8.67348,-1.85917 -11.54815,-10.53785 -6.84556,-20.67212 1.52846,-3.2965 7.45487,-10.09 8.82972,-10.12124 3.73394,-0.0808 6.49925,-7.36114 2.98924,-7.87149 -1.17175,-0.17187 -1.8826,-2.37734 -1.47119,-4.56459 0.70825,-3.77821 7.96003,-8.23604 11.73044,-7.21272 m -111.294608,3.49701 c -1.593568,1.92944 -4.361481,7.22313 -4.361481,8.34278 0,0.84367 3.038715,2.25235 8.965123,4.15839 7.322081,2.35388 7.671,2.93716 6.879422,11.53253 -0.497338,5.43168 -0.270801,6.02016 2.314842,6.02016 4.108905,0 5.569676,-3.06997 4.835386,-10.14989 -0.695235,-6.69196 -0.856673,-7.05389 -4.351067,-9.72026 -1.653457,-1.26286 -3.838103,-3.37981 -4.856217,-4.70259 -5.710286,-7.42623 -7.134602,-8.25425 -9.426008,-5.48112 m -491.472572,0.40619 c -0.4739,1.23163 14.04787,12.08978 15.73258,11.76687 1.57273,-0.30463 0.54942,-1.71854 -3.61157,-4.989 -7.5434,-5.93161 -11.57939,-8.18656 -12.12101,-6.77787 m 704.59151,4.08288 c 0.83844,3.73133 2.85384,5.60089 6.03835,5.60089 1.84096,0 1.65608,-0.39836 -1.99714,-4.28074 -3.60638,-3.8355 -4.68438,-4.18704 -4.04121,-1.32015 m -397.0719,-1.02593 c 4.00214,3.28608 6.74664,8.79846 4.38232,8.79846 -1.66128,0 -2.24196,1.23164 -2.0128,4.27296 0.24477,3.25485 -0.79418,5.70768 -2.419,5.70768 -2.92935,0 -3.48137,1.4738 -3.10121,8.24645 0.22655,4.05162 3.24443,7.37677 6.69194,7.37677 1.59619,0 2.12738,0.21091 2.84864,1.12748 0.75773,0.96342 1.4764,1.21601 4.89008,1.72637 2.2289,0.33329 4.28595,0.88269 4.64529,1.24203 0.68741,0.69003 0.76814,0.61712 -1.46857,1.31756 -1.54149,0.48173 -1.617,3.9032 -0.21092,9.41302 0.66919,2.61947 1.69772,3.67924 3.93444,4.0568 7.34812,1.24204 13.67814,10.64984 10.87117,16.16742 -0.21093,0.41403 -0.63795,1.29414 -0.9478,1.95811 -0.93481,1.99457 -3.93186,4.72603 -6.37689,5.80663 -7.8663,3.47877 -14.8811,-2.08309 -15.11287,-11.98821 -0.0964,-4.05942 -0.29423,-4.3198 -2.49451,-3.27566 -4.27294,2.02842 -5.36916,8.2907 -1.59617,9.11874 1.58055,0.34633 3.47616,2.09351 3.47616,3.20017 0,0.92436 -3.04911,1.30193 -8.12145,1.0103 l -2.26536,-0.1302 -0.12239,-4.81456 -0.12238,-4.81454 -2.82,-0.0833 c -3.45533,-0.10411 -3.90579,0.0417 -3.90579,1.25766 0,3.89279 -4.89269,9.57703 -9.36093,10.87375 -8.43393,2.45286 -13.85778,-2.46845 -13.85778,-12.57407 0,-8.71776 3.46574,-13.16516 9.92334,-12.73554 3.55949,0.23436 3.88496,0.0833 3.59855,-1.68469 -0.15363,-0.95042 -0.6692,-1.92426 -1.24985,-2.36171 -2.10915,-1.59098 -0.97907,-9.32707 3.19233,-21.84126 0.47651,-1.43213 1.04154,-2.99446 1.25507,-3.47356 0.21351,-0.4765 1.09103,-2.91373 1.94509,-5.41606 l 1.55712,-4.54895 -1.13269,-2.23673 c -1.19257,-2.3565 -1.45556,-4.83018 -0.71606,-6.73361 1.52847,-3.92403 12.87092,-6.69975 16.20388,-3.96568 m 479.10421,3.69228 c 0.46869,1.83052 1.18215,2.87208 4.00734,5.85609 5.59832,5.91341 6.78309,5.46814 2.56482,-0.96862 -5.48116,-8.35843 -7.92878,-10.17853 -6.57216,-4.88747 m -615.94017,-1.05717 c -4.18442,4.76509 -3.85632,9.77492 0.66398,10.14727 2.73928,0.22394 3.51523,1.6743 3.51523,6.57216 0,3.96831 0.004,3.98654 1.69772,6.15036 3.99435,5.114 4.88747,9.03542 3.06737,13.4542 -1.42432,3.46054 -1.39047,3.68707 0.55201,3.69487 1.41131,0.002 9.86087,-1.04414 12.53764,-1.55711 1.32797,-0.25257 1.38265,-0.56764 1.71856,-9.67598 l 0.30205,-8.22823 -1.99197,-1.40347 c -2.64292,-1.86438 -3.22359,-3.2913 -2.49711,-6.12952 0.30726,-1.19518 0.38537,-2.30181 0.17967,-2.47107 -0.20831,-0.16924 -1.5467,-1.27069 -2.97883,-2.44243 -1.43214,-1.17434 -3.87456,-3.42408 -5.42645,-4.99682 -1.54931,-1.57534 -3.50222,-3.11162 -4.33806,-3.41628 -0.83584,-0.30466 -2.10132,-0.7994 -2.81219,-1.10145 -1.72115,-0.72907 -2.56479,-0.44524 -4.18962,1.4035 m -172.62092,0.48433 c -0.72388,0.45827 0.32288,4.18961 1.72375,6.16075 1.18997,1.66647 7.47571,4.07504 13.5271,5.1817 6.55654,1.19777 3.58554,-1.56494 -10.63421,-9.8921 -3.33554,-1.95291 -3.66363,-2.05444 -4.61664,-1.45035 m 697.59489,1.63002 c -0.43745,1.73938 0.19531,6.5435 0.9426,7.16323 0.89572,0.74471 4.36149,1.17695 12.55066,1.57014 8.39749,0.4036 8.39227,0.401 8.42613,4.37189 0.047,5.50458 2.33045,8.48602 3.28867,4.29378 1.4087,-6.16074 0.0754,-9.01459 -4.83019,-10.32955 -7.54858,-2.02581 -8.32195,-2.34867 -12.54802,-5.26241 -4.99683,-3.44493 -7.28563,-3.97351 -7.82985,-1.80708 m -673.91009,13.43856 c 0.414,0.62753 0.82541,0.91396 0.91916,0.63534 0.19008,-0.57024 -0.67703,-1.78105 -1.2785,-1.78105 -0.21352,0 -0.052,0.51556 0.35934,1.14571 m 334.08427,2.7601 v 3.25483 l 3.25485,0.006 c 5.21815,0.008 12.009025,3.84853 10.251414,5.79362 -0.960822,1.06238 -1.273289,6.60601 -0.41922,7.46008 0.380171,0.37758 1.518072,0.34113 4.671333,-0.15882 4.267764,-0.67702 5.733729,-0.54682 8.715175,0.76292 5.145239,2.26016 10.199344,1.53629 10.199344,-1.46076 0,-3.5621 -6.996586,-12.772 -11.066439,-14.56867 -4.936936,-2.17943 -16.511137,-4.5099 -21.916767,-4.41095 l -3.68969,0.065 v 3.25485 m 130.136192,-1.0051 c -0.533793,2.12214 1.682099,4.73383 3.205363,3.78081 1.359221,-0.85146 1.239442,-3.47355 -0.192687,-4.24951 -1.827916,-0.98947 -2.679381,-0.85927 -3.012676,0.4687 m 114.401018,4.49688 c -1.24206,2.32264 3.68968,4.67655 8.90784,4.24692 2.0805,-0.17186 2.78354,-2.05447 1.10143,-2.9554 -3.27828,-1.75502 -9.34268,-2.53618 -10.00927,-1.29152 m -593.30732,0.11455 c -0.50515,0.77856 1.10145,4.56458 2.10393,4.94735 0.72388,0.27862 3.06997,-0.92698 3.91882,-2.0154 0.94781,-1.21599 0.69263,-3.41366 -0.41922,-3.6272 -1.46077,-0.2812 -5.27544,0.1927 -5.60353,0.69525 m 12.42567,5.29106 c -2.92675,5.30147 -7.58246,14.92017 -7.58246,15.66748 0,1.43213 3.41365,5.81444 4.53072,5.81444 0.24476,0 2.74449,-2.29141 5.55146,-5.09316 5.56446,-5.54624 5.58269,-5.5853 4.62968,-9.66296 -0.2526,-1.07281 -0.63795,-2.92937 -0.85668,-4.12194 -0.76293,-4.16357 -1.2082,-6.08524 -1.71595,-7.37675 l -0.50775,-1.30192 -1.06499,1.30192 c -0.58588,0.71606 -1.92946,2.86427 -2.98403,4.77289 m 682.87003,-4.55156 c -0.71607,0.38015 -0.82283,0.97646 -0.83844,4.66352 -0.006,2.32525 -0.0495,4.52033 -0.0886,4.87967 -0.21873,1.98674 0.12758,3.95526 0.73429,4.187 1.46597,0.56504 2.39556,-1.07278 4.10891,-7.22573 0.29944,-1.0754 0.82283,-2.59605 1.16652,-3.37982 1.21602,-2.78614 -2.01017,-4.77028 -5.08273,-3.12464 m 114.65878,0.97384 c -0.11191,0.58848 0.78638,1.20039 3.9006,2.65336 5.1843,2.41898 5.653,2.55439 7.02783,2.03102 2.09871,-0.7994 1.01552,-3.4944 -1.40608,-3.4944 -0.65096,0 -1.36963,-0.16145 -1.59616,-0.35674 -0.45568,-0.39579 -3.27308,-1.26808 -4.97079,-1.53628 -1.89042,-0.29944 -2.80699,-0.0833 -2.9554,0.70304 m -100.11358,2.70021 c -0.47652,0.49734 -2.13257,2.36431 -3.67926,4.14536 -1.54931,1.78365 -2.98144,3.3616 -3.18454,3.50741 -0.64575,0.46089 -0.1302,2.33828 0.64055,2.33828 0.69001,0 7.6736,-7.57985 8.62922,-9.36612 1.31495,-2.45545 -0.25778,-2.86165 -2.40597,-0.62493 M 8.518224,546.96988 c -1.1430996,1.14309 -0.2812191,7.29083 1.0207165,7.29083 3.4266915,0 4.1427555,-3.21059 1.4139005,-6.3196 -1.4425445,-1.64303 -1.6716845,-1.73417 -2.434617,-0.97123 m -313.979784,0.96081 c 0.13018,1.77324 0.72907,2.24975 2.06746,1.64044 1.93728,-0.88271 1.09102,-3.28347 -1.07021,-3.0309 -0.90874,0.10668 -1.07277,0.3359 -0.99725,1.39046 m -120.27796,-0.0573 c -0.70566,1.0754 -0.23696,3.45793 1.23945,6.31698 2.0883,4.03861 3.85112,0.57026 2.16641,-4.26514 -1.12748,-3.24442 -2.20286,-3.89019 -3.40586,-2.05184 m 459.960811,1.45787 c -3.463147,1.15093 -4.296386,2.20288 -2.93977,3.70271 0.984263,1.08321 1.499829,1.00508 3.424088,-0.52338 3.897993,-3.0986 3.674061,-4.56198 -0.484318,-3.17933 m 308.618449,2.46587 c -1.10143,2.66115 -0.55722,3.81986 2.57263,5.50198 2.33045,1.25506 3.15327,3.55167 3.2314,9.0198 0.052,3.52043 1.09884,3.13767 6.80911,-2.49711 5.99411,-5.91339 5.70249,-6.69715 -4.37971,-11.72003 -6.31958,-3.14806 -7.04867,-3.1741 -8.23343,-0.30464 m -210.03785,-2.04685 c -1.71074,0.65877 -0.30986,2.22892 4.02297,4.50991 3.75739,1.97893 4.15318,3.83549 1.6118,7.52778 -2.58564,3.75217 -1.73939,5.40824 2.50492,4.90568 2.73146,-0.32547 2.87727,-0.57284 2.8851,-4.96819 0.0107,-5.16345 -3.88497,-10.25924 -9.03023,-11.81374 -0.63795,-0.19268 -1.19518,-0.36715 -1.23423,-0.38797 -0.0391,-0.0208 -0.38277,0.0833 -0.76033,0.22653 m 7.10596,1.48682 c 1.9529,1.66908 4.27555,2.14818 5.08015,1.04935 1.14309,-1.56232 -0.12498,-2.30181 -3.97611,-2.31745 l -2.60387,-0.0129 1.49983,1.2811 m 112.41948,3.15589 c -10.45975,12.49077 -9.95981,11.42839 -6.72579,14.2666 1.58574,1.39047 3.63759,0.56764 3.67403,-1.47378 0.0391,-2.12216 3.67408,-7.04869 7.06691,-9.58225 1.93469,-1.44515 1.98936,-1.94509 0.47913,-4.22869 -1.30195,-1.96851 -2.15602,-1.77584 -4.49428,1.01812 m -778.72107,-0.78376 c 0.12758,4.2521 1.59877,4.94473 7.32988,3.45273 4.78331,-1.24464 3.93446,-3.01528 -2.27315,-4.74165 -3.85113,-1.07018 -5.11663,-0.74731 -5.05673,1.28892 m 528.3173235,3.61676 c 0,0.98427 2.3460872,4.35368 3.8953885,5.59312 2.0232072,1.61701 2.6273054,-0.49473 1.1170616,-3.91101 -0.6093068,-1.37745 -1.1066453,-2.72626 -1.1066453,-2.99704 0,-0.27342 -0.3280876,-0.85669 -0.7264795,-1.29935 -0.9243738,-1.02072 -3.1793253,0.83323 -3.1793253,2.61428 m -23.7108365,-1.92685 c -8.704737,2.31744 -17.365205,12.10277 -15.365434,17.36259 l 0.476508,1.24985 4.410953,-0.30204 c 5.314499,-0.36715 5.103585,-0.26038 7.392386,-3.74435 2.398164,-3.65063 3.856332,-4.41357 7.785571,-4.08289 3.374614,0.28384 3.562093,0.14324 7.043468,-5.23117 2.364313,-3.65062 2.4476369,-4.39531 0.5754555,-5.21034 -1.8487475,-0.802 -9.3661215,-0.82803 -12.3189075,-0.0416 m -444.553447,1.06497 c 0,2.92155 3.38242,4.34066 4.58282,1.92167 1.13788,-2.29402 0.32808,-3.59074 -2.24454,-3.59074 h -2.33828 v 1.66907 m -45.89841,-1.28631 c -0.41401,0.21091 -1.24725,0.6119 -1.85136,0.89051 -4.16097,1.92167 -8.03554,8.70736 -4.97078,8.70736 0.63793,0 7.42364,-6.61905 8.874,-8.65527 l 0.9426,-1.32537 h -1.11967 c -0.61712,0 -1.46078,0.17185 -1.87479,0.38277 m 732.794,2.33044 c -3.00745,3.32776 -3.924,6.47585 -2.34086,8.05638 1.36962,1.36963 4.65052,-2.55699 5.25461,-6.28574 0.14581,-0.91396 0.35672,-2.10131 0.46608,-2.64032 0.34892,-1.68991 -1.49721,-1.216 -3.37983,0.86968 m -518.79498,-0.86968 c -1.47118,1.65346 -2.42941,5.96807 -1.32276,5.96807 0.64575,0 3.26005,-2.67417 4.37972,-4.47606 1.38004,-2.2289 -1.25507,-3.51522 -3.05696,-1.49201 m -196.03753,-0.15363 c -0.97905,0.81242 -0.92438,0.83845 3.24702,1.57274 7.17367,1.26287 18.61507,0.8124 18.61507,-0.73169 0,-1.6821 -19.9248,-2.45023 -21.86209,-0.84105 m 329.97016,1.13529 c -0.36974,1.97894 0.1927,3.85633 2.11436,7.05908 0.96344,1.60398 2.07789,3.74698 2.47628,4.7625 1.13007,2.86164 3.43189,2.75749 4.21566,-0.1901 0.38538,-1.45295 0.88531,-2.2263 1.74721,-2.71322 2.95538,-1.66128 0.83584,-6.70237 -2.55441,-6.07224 -1.16392,0.21871 -1.90604,-0.11454 -1.90604,-0.84886 0,-1.27848 -1.39305,-2.68718 -3.04911,-3.08036 -2.24454,-0.53642 -2.77834,-0.34632 -3.04395,1.0832 m 220.420173,0.71607 c -3.228797,0.96603 -0.15623,7.51216 5.265025,11.21487 3.541263,2.41638 4.059434,3.13505 3.970902,5.49154 -0.231744,6.08527 -7.394989,2.83041 -7.434048,-3.37461 -0.01303,-2.432 -6.233663,-11.23048 -7.939198,-11.23048 -3.452732,0 -7.48873,7.63453 -7.454879,14.10255 0.05988,11.52213 7.108565,18.87808 18.083875,18.87808 13.667711,0 21.830842,-8.54592 19.870127,-20.80234 -1.174345,-7.32988 -7.454878,-13.88903 -13.337018,-13.92288 -0.661385,-0.002 -1.494622,-0.19531 -1.853955,-0.42705 -0.906146,-0.58586 -7.142415,-0.53899 -9.170831,0.0703 m -63.9692638,4.3797 c -4.2989892,4.46305 -5.0098462,6.22067 -3.4319002,8.47299 0.752517,1.07541 11.41796836,1.49203 13.2406768,0.51557 1.7602163,-0.94259 0.3176725,-4.81454 -3.6636442,-9.83741 -2.3148395,-2.91634 -2.5491881,-2.88509 -6.1451324,0.84885 M 264.98474,560.71788 c -0.4739,0.29942 -0.42184,0.90613 0.27861,3.35638 0.47131,1.64305 1.12227,3.94225 1.44775,5.10878 0.41401,1.48682 1.0181,2.45024 2.0258,3.21839 3.86415,2.95279 3.23662,6.16336 -1.20819,6.16336 -2.75227,0 -3.87715,-1.2863 -3.0934,-3.53084 1.70814,-4.90309 -1.65605,-13.77708 -4.77549,-12.59232 -4.38492,1.66648 -8.63965,10.42068 -7.67361,15.77945 2.50492,13.86822 17.8886,20.12271 25.11953,10.20977 8.82973,-12.1028 4.47606,-24.44251 -9.80617,-27.79109 -1.38264,-0.32288 -1.70032,-0.31247 -2.31483,0.0781 m -34.61064,3.15849 c -3.22099,3.09599 -3.37982,3.80685 -1.6847,7.51477 0.97124,2.12474 1.24465,2.39815 2.38775,2.39815 h 1.28891 v -2.80696 c 0,-2.07269 0.28382,-3.42931 1.08321,-5.1791 1.38005,-3.01789 1.41649,-4.59844 0.10667,-4.59844 -0.21871,0 -1.65084,1.203 -3.18191,2.67158 m -701.05286,-1.62483 c 0,0.99989 2.66377,3.02832 3.08559,2.3487 0.22133,-0.36193 -0.0649,-0.99728 -0.79939,-1.76282 -1.24205,-1.29673 -2.2862,-1.56493 -2.2862,-0.58588 m -20.31539,0.85407 c -0.52857,0.52859 -0.29943,1.20561 1.65607,4.89007 2.81479,5.3093 2.85644,5.36139 4.43699,5.36139 0.71087,0 1.82012,0.44265 2.46066,0.98164 1.09621,0.92177 1.61961,0.99209 8.42092,1.11446 8.50683,0.15623 8.69431,0.052 6.16596,-3.39284 -1.99716,-2.72105 -3.10381,-3.04393 -6.03056,-1.75761 -4.01257,1.76541 -3.92144,1.79407 -5.7129,-1.76023 -0.87751,-1.74198 -2.0805,-3.93965 -2.67416,-4.87965 l -1.08061,-1.71074 -3.51524,0.27082 c -2.12215,0.16142 -3.75739,0.51295 -4.12713,0.88269 m 616.79948,-0.13802 c -0.64837,1.05196 0.24215,3.50482 1.22121,3.3642 1.35141,-0.19529 2.41379,-2.21329 1.65346,-3.13245 -0.65097,-0.78376 -2.44243,-0.92699 -2.87467,-0.23175 m -433.38286,0.25777 c -1.05195,0.95043 -1.02592,1.11967 0.61973,3.98134 1.78105,3.09338 2.46326,5.04889 3.11683,8.93126 0.57806,3.42669 1.4061,4.13494 2.64033,2.25495 0.77334,-1.17955 0.40879,-2.86164 -2.2107,-10.24361 -2.18463,-6.15035 -2.45545,-6.47321 -4.16619,-4.92394 m 503.67694,1.27331 c -6.89247,4.57239 -10.73055,12.76937 -8.80891,18.80775 4.73905,14.89934 20.4482,16.69599 29.09565,3.32773 2.6169,-4.04642 2.68719,-3.98391 -4.65834,-4.3172 -4.28075,-0.19269 -6.60341,-0.1328 -7.20751,0.19008 -2.82779,1.51283 -4.74945,-0.64576 -3.20275,-3.59855 1.64043,-3.13507 3.35899,-8.09804 3.01008,-8.6865 -1.36182,-2.2862 -5.09838,-7.28043 -5.44991,-7.28043 -0.23695,0 -1.48941,0.70044 -2.77831,1.55712 m -526.61442,1.35402 c -5.7155,2.59083 -8.03034,6.90025 -7.7309,14.38117 0.68222,17.00066 23.11977,18.81556 28.127,2.27317 1.09883,-3.63239 0.90616,-3.78864 -5.04367,-4.07766 -4.52815,-0.21872 -4.9656,-0.16664 -6.81433,0.81761 -3.04393,1.61962 -5.28067,1.02333 -6.60343,-1.76542 -1.76542,-3.72353 1.57273,-7.09814 5.81965,-5.87954 1.65086,0.4713 2.59867,-0.276 4.90308,-3.86414 2.11175,-3.2887 1.74721,-3.50741 -5.48895,-3.2939 -3.71832,0.10931 -4.74946,0.31246 -7.16845,1.40871 m 44.27621,0.8749 c -6.64249,3.13504 -9.79056,11.34504 -4.37971,11.42577 13.1235,0.19529 18.54735,-0.414 19.03428,-2.1456 0.35413,-1.26547 0.26819,-8.37662 -0.1224,-9.97021 l -0.25256,-1.02591 -5.72851,0.19267 c -5.28325,0.17707 -5.94983,0.29425 -8.5511,1.52328 m -208.28616,-1.0754 c -1.86175,2.27055 -2.62728,3.31472 -2.62728,3.57771 0,0.16665 -0.35674,0.82281 -0.79159,1.45556 -6.73621,9.81918 1.33058,24.45295 13.42814,24.354 8.66309,-0.0703 18.75569,-8.81671 18.09691,-15.68311 l -0.138,-1.44255 -3.68969,-0.34371 c -6.74663,-0.62493 -9.39736,-0.2005 -11.48046,1.84354 -3.73395,3.66364 -8.76202,-0.17967 -6.28575,-4.80674 0.50516,-0.94 0.55463,-0.84105 -3.16369,-6.41594 -2.09351,-3.14026 -2.56222,-3.497 -3.34859,-2.53876 m 179.22435,4.12451 c -2.81998,3.16112 -4.11411,5.28065 -3.372,5.52282 1.27328,0.41921 8.57454,1.14049 8.98336,0.88791 1.40087,-0.86708 -1.38267,-8.90782 -3.0804,-8.90782 -0.16924,0 -1.30714,1.12487 -2.53096,2.49709 m -223.14902,0.0338 c -2.48149,3.56209 -1.06498,5.04109 1.84094,1.91903 3.49178,-3.75736 3.7131,-4.61925 1.13009,-4.36406 -1.08323,0.10411 -1.68471,0.59888 -2.97103,2.44503 m 387.20323,-1.6873 c -1.54669,0.97905 -2.34088,7.24916 -1.05456,8.31675 0.91135,0.75513 3.47356,-2.0128 3.88236,-4.18962 0.48954,-2.61168 -1.23683,-5.13222 -2.8278,-4.12713 m -289.93307,0.90093 c -1.69771,1.2082 -4.27555,4.82498 -4.60105,6.45239 -0.34109,1.70032 1.25768,2.4971 5.87695,2.92675 3.79123,0.35152 3.91361,0.15104 2.85384,-4.74945 -1.24985,-5.79621 -1.73158,-6.33781 -4.12974,-4.62969 m 649.62121,2.018 c -1.89822,0.76034 -3.62718,3.57513 -4.12974,6.731 -0.31768,1.97633 0.16405,2.11436 7.88192,2.23152 l 5.19992,0.0781 -0.0938,-1.51805 c -0.0964,-1.60399 -0.95561,-7.17626 -1.26286,-8.19699 -0.23175,-0.77336 -5.05152,-0.3437 -7.5955,0.67439 m 130.03204,0.8619 c -0.60668,1.45296 -0.60148,1.65606 0.0781,2.40597 1.74719,1.93207 3.79903,0.0156 2.6247,-2.45025 -0.94261,-1.97373 -1.86698,-1.9581 -2.70282,0.0443 m -715.07208,-1.13268 c -1.99455,0.55463 -2.21849,0.89573 -1.59617,2.44503 0.27342,0.6718 0.64577,1.6144 0.83064,2.09351 1.216,3.14807 1.9529,4.25993 3.49439,5.28065 2.11695,1.40089 2.56742,2.82781 1.39047,4.41355 -2.09612,2.81739 -5.14525,1.2655 -4.68696,-2.38772 0.29683,-2.38256 -0.263,-4.66615 -1.96592,-8.0017 -1.32797,-2.60126 -1.98938,-2.6195 -4.28599,-0.11455 -10.20976,11.12894 3.66888,27.61663 15.49304,18.40674 7.82462,-6.09565 4.83018,-19.66442 -4.89267,-22.16413 -1.83574,-0.47391 -1.98155,-0.4713 -3.78083,0.0286 m 509.58249,2.16642 c 0,1.13528 0.15103,1.2863 1.28632,1.2863 2.04404,0 2.98144,-2.33047 1.20819,-2.99966 -1.42692,-0.53899 -2.49451,0.19269 -2.49451,1.71336 m 240.63142,-0.27861 c -1.0077,1.53888 0.30466,5.90557 1.77844,5.90557 2.21589,0 3.6246,4.31461 1.91385,5.86392 -2.23152,2.01798 -5.74414,0.008 -5.58792,-3.19497 0.29165,-5.93682 -3.08296,-8.43393 -5.36397,-3.9683 -4.00213,7.84026 1.1405,15.37067 10.51183,15.38628 11.34767,0.0183 14.47492,-15.0712 4.13495,-19.95606 -3.05694,-1.44254 -6.45499,-1.46077 -7.38718,-0.0365 m -61.39924,1.05975 c -5.16088,2.49973 -5.95247,8.28813 -2.04144,14.93581 3.19233,5.42906 12.42045,5.62175 18.21666,0.38278 1.82793,-1.64827 3.10643,-3.74436 2.69502,-4.41096 -0.37757,-0.61192 -6.60602,-0.51817 -7.72308,0.11715 -4.65573,2.64292 -9.33226,0.80198 -8.85316,-3.48399 0.30466,-2.72104 1.25766,-3.56469 4.04121,-3.56469 1.2889,0 2.43201,-0.22133 2.60909,-0.50776 0.53117,-0.85927 0.35411,-4.3172 -0.23957,-4.68436 -1.11446,-0.69002 -6.25448,0.0286 -8.70473,1.216 m -847.21067,0.16406 c -1.14569,0.70564 -2.08568,1.41389 -2.0883,1.57274 -0.0156,0.8202 2.46327,5.68944 2.90332,5.69986 1.83833,0.0417 4.84059,-6.96796 3.61419,-8.44435 -0.67702,-0.81762 -1.58318,-0.57806 -4.42921,1.17175 m -20.05238,-0.34632 c -8.36363,3.69747 -10.39725,12.39441 -4.55417,19.48215 5.72592,6.94712 18.63069,3.59073 21.04188,-5.47073 1.0181,-3.81989 -0.69525,-11.01176 -2.46328,-10.35559 -2.37473,0.8775 -6.47061,5.34574 -6.47061,7.05649 0,3.28607 -3.67927,4.62447 -5.75195,2.09091 -2.07529,-2.54139 -0.66138,-5.16609 2.79395,-5.17911 1.78367,-0.006 7.7309,-5.2572 7.7309,-6.82473 0,-1.9503 -8.47821,-2.50232 -12.32672,-0.79939 m 779.10382,-0.0728 c -1.90342,1.55712 -1.83312,5.53325 0.0964,5.53325 2.11434,0 3.00487,-0.91398 3.00487,-3.0856 0,-2.63252 -1.46338,-3.78863 -3.10121,-2.44765 m 101.38166,0.35154 c -0.53899,0.86969 -0.95822,5.40303 -0.59108,6.37686 0.98427,2.6143 3.40325,0.82544 3.48138,-2.57521 0.0781,-3.37462 -1.70554,-5.72071 -2.8903,-3.80165 m -212.49401,0.83568 c -3.4996,0.0287 -7.33249,10.44413 -5.01245,13.61824 1.04676,1.42952 5.08797,-2.3513 5.08797,-4.75987 0,-1.28631 1.42952,-2.61688 3.18452,-2.96581 1.70554,-0.3385 4.84581,-2.46325 4.84581,-3.27828 0,-1.2134 -4.59063,-3.18453 -6.50967,-2.79655 -0.47912,0.099 -1.19518,0.17967 -1.59618,0.18227 m -282.13968,0.89312 c -0.4062,1.5493 1.50765,3.32255 2.90071,2.68721 1.38265,-0.63014 1.42952,-1.25247 0.1927,-2.57003 -1.18738,-1.26029 -2.77835,-1.32275 -3.09341,-0.11713 m -19.67484,1.97111 c -6.25971,6.25712 -0.677,18.68799 7.18928,16.01641 3.44751,-1.17174 6.37948,-4.62709 6.62425,-7.8064 l 0.13279,-1.73679 -2.75229,0.0781 c -1.80189,0.052 -3.01527,0.31508 -3.5074,0.76034 -1.5415,1.39568 -4.37192,0.43224 -4.37192,-1.48942 0,-0.80721 1.0676,-2.16902 1.70034,-2.16902 0.18487,0 0.6796,-0.83063 1.09883,-1.84615 0.41922,-1.0129 0.95041,-2.20548 1.17955,-2.64552 0.48693,-0.92958 0.45569,-0.98427 -0.93478,-1.49722 -1.74459,-0.64576 -4.32504,0.30205 -6.35865,2.33567 m 174.581634,-0.41142 c -3.137662,1.93729 -4.991617,2.04144 -7.736097,0.43485 -2.736667,-1.60659 -12.061123,-1.46338 -13.985383,0.21091 -1.572738,1.36964 5.827459,10.56651 10.157695,12.62618 11.066446,5.25981 25.59083106,-0.75774 28.1842863,-11.68358 0.7629328,-3.21578 0.8696913,-3.16631 -7.0460725,-3.16631 h -7.0174298 l -2.556999,1.57795 m -79.194089,0.51036 c -2.593452,3.04131 -6.452386,2.91894 -7.850655,-0.24997 -0.5416,-1.22382 -0.83064,-1.40348 -2.25495,-1.40348 -6.455,0 4.353669,9.47547 11.96997,10.49359 4.335468,0.58066 5.061932,-0.3333 6.048807,-7.62674 0.525974,-3.89279 -4.916106,-4.72864 -7.913172,-1.2134 m -50.249465,-1.45296 c -0.52858,1.38004 1.53367,6.18681 2.89549,6.75183 2.33048,0.96344 1.59358,4.33024 -0.9478,4.33024 -1.49982,0 -1.8748,-0.59107 -1.93467,-3.03872 -0.052,-2.18204 -1.56232,-6.60861 -2.34349,-6.869 -0.70303,-0.23435 -2.95799,2.01279 -3.80164,3.79124 -1.96593,4.13495 0.82803,10.47797 5.48113,12.44129 6.84558,2.89288 14.51919,-8.10587 9.76713,-13.99841 -2.36953,-2.93457 -8.42874,-5.20253 -9.11615,-3.40847 m 29.24144,0.34111 c -0.4869,1.32016 1.99458,9.11875 3.84854,12.10539 2.42421,3.89538 10.40245,7.05127 14.956609,5.91339 4.28337,-1.07279 6.74924,-3.86676 3.648032,-4.13495 -2.038844,-0.17967 -7.402806,-1.81229 -9.579641,-2.91632 -2.47888,-1.26027 -5.54103,-4.86404 -7.56423,-8.90524 -1.27589,-2.54659 -4.64791,-3.85634 -5.30931,-2.06227 m 263.31372,1.13788 c -4.16619,2.39556 -2.21589,11.86845 3.14287,15.2665 6.83255,4.33286 13.66772,-2.6924 10.34518,-10.63941 -1.05717,-2.52835 -4.12453,-5.00463 -6.19981,-5.00463 -0.44005,0 0.33588,3.67405 1.09882,5.20773 0.99469,1.99716 0.75253,3.39283 -0.64315,3.74437 -1.67168,0.41922 -3.18454,-1.21862 -2.3539,-2.54659 0.77855,-1.24726 0.64315,-4.99162 -0.22915,-6.32478 -0.77854,-1.18478 -2.77832,-1.07021 -5.16086,0.29681 m -328.23598,-0.052 c -0.21874,0.41663 -0.5364,1.39307 -0.70305,2.16904 l -0.30206,1.41128 h 2.20549 c 2.6221,0 2.91894,-0.82022 1.08061,-3.00485 -1.28893,-1.53108 -1.72378,-1.64044 -2.28099,-0.57547 m 300.02566,3.46055 c -1.56493,1.09364 -2.39296,2.00238 -2.5518,2.80176 -0.18746,0.93479 -0.59368,1.27849 -1.95811,1.64566 -1.27069,0.34108 -2.18203,1.04414 -3.48658,2.67938 -2.1534,2.70802 -2.16381,2.85903 -0.2031,3.2262 6.37427,1.19777 11.45703,-2.67419 11.45703,-8.72818 0,-3.81727 -0.0703,-3.85113 -3.25744,-1.62482 m -203.794465,0.66659 c -0.552016,2.07789 1.51286,2.98925 3.408475,1.50764 0.585861,-0.46088 0.734282,-2.15079 0.231736,-2.65333 -0.833242,-0.83325 -3.322541,-0.0495 -3.640211,1.14569 m -160.497315,1.39047 c -0.67439,0.34892 -1.34099,0.92957 -1.479,1.29152 -0.82022,2.13777 -4.54636,2.0128 -6.5331,-0.21612 -0.96343,-1.0806 -1.48941,-1.28891 -3.41368,-1.3462 -4.50208,-0.1354 -5.15305,0.2083 -3.94226,2.08309 3.65325,5.66602 11.99343,5.89776 18.12555,0.50516 2.74707,-2.4138 0.72125,-4.11671 -2.75751,-2.31745 m 8.83233,0.1302 c -0.25778,0.17445 -1.02853,1.3566 -1.71335,2.62729 -2.79394,5.1791 -5.9941,6.82474 -13.1157,6.74403 -6.21282,-0.0728 -6.1894,-0.0886 -2.38773,1.70292 7.6788,3.61679 14.83683,0.84366 18.95095,-7.34812 1.72376,-3.4319 0.78637,-5.44469 -1.73417,-3.72612"
       stroke="none"
       fill-rule="evenodd"
       style="fill:#205493;fill-opacity:1;fill-rule:nonzero;stroke-width:2.60387;paint-order:fill"
       fill="#ffffff" />
    <g
       aria-label="kidical"
       transform="scale(-1,1)"
       id="text17563"
       style="font-size:186.667px;line-height:1.25;font-family:'Cooper Black';-inkscape-font-specification:'Cooper Black, Normal';fill:#205493">
      <path
         d="m -179.26364,38.590866 -0.82031,28.528698 q -0.0911,4.283862 -0.0911,12.578148 0,9.205746 0.27344,10.846374 0.63802,3.736986 3.82813,3.736986 2.73438,0 8.38544,-3.463548 5.65105,-3.554694 5.65105,-5.286468 0,-1.002606 -2.00521,-3.64584 -1.45834,-1.914066 -1.45834,-3.64584 0,-9.843768 24.24484,-9.843768 12.57814,0 19.86982,2.552088 2.91668,1.002606 4.83074,3.463548 1.91407,2.460942 1.91407,5.286468 0,4.10157 -3.91928,5.742198 -0.82031,0.364584 -5.28647,1.184898 -4.01042,0.729168 -10.39064,5.01303 -6.38022,4.192716 -6.38022,6.106782 0,1.276044 7.65626,12.03127 7.74741,10.66408 14.40107,18.59379 4.28386,5.19532 6.65366,7.29168 2.46094,2.09635 6.7448,4.46615 6.562514,3.55469 6.562514,8.11199 0,4.83074 -4.192714,7.56512 -4.10157,2.73438 -11.30211,2.73438 h -29.5313 q -5.55991,-0.0911 -8.65887,-4.10157 l -15.13024,-19.4141 q -6.01563,-7.65626 -7.38282,-9.1146 -1.27605,-1.45833 -2.18751,-1.45833 -1.09375,0 -1.45833,1.64063 -0.36459,1.64062 -0.36459,6.19792 0,4.10157 0.91146,6.01564 0.91146,1.82292 4.19272,4.46615 2.3698,1.91407 2.3698,5.65106 0,6.38022 -6.74481,9.20574 -6.7448,2.82553 -22.23962,2.82553 -18.2292,0 -23.69796,-1.54948 -3.09897,-0.91146 -5.28647,-3.64584 -2.1875,-2.82553 -2.1875,-5.92449 0,-3.46355 3.82813,-6.01564 3.28125,-2.09636 4.19271,-3.19011 0.91146,-1.09375 1.45834,-3.46355 2.09636,-12.76044 2.00521,-39.37507 V 77.327916 q 0,-10.208352 -1.09375,-13.033878 -1.00261,-2.825526 -5.10418,-3.372402 -7.47397,-1.002606 -7.47397,-6.197928 0,-3.463548 3.28126,-6.197928 3.28125,-2.825526 10.75523,-5.559906 23.88025,-8.841162 35.36464,-8.841162 5.19533,0 5.01303,4.466154 z"
         id="path829" />
      <path
         d="m -44.367562,74.04666 v 52.95583 q 0,6.28907 1.093752,9.20574 1.184898,2.91667 4.648446,5.37762 2.825526,2.00521 3.736986,3.46354 1.002606,1.36719 1.002606,3.5547 0,11.75783 -29.804742,11.75783 -16.041696,0 -25.429734,-2.55209 -3.19011,-0.91146 -5.195322,-3.19011 -1.914066,-2.27865 -1.914066,-5.19532 0,-2.46094 1.002606,-3.82813 1.002606,-1.36719 5.104176,-4.37501 2.825526,-2.09636 4.010424,-6.83595 1.184898,-4.73959 1.184898,-14.12763 0,-3.00782 -0.45573,-11.21096 -0.364584,-8.29428 -0.546876,-9.661472 -0.546876,-3.736986 -5.104176,-5.742198 -5.651052,-2.460942 -5.651052,-7.29168 0,-5.742198 7.382826,-8.567724 10.208352,-3.919278 21.87504,-6.653658 11.666688,-2.73438 18.046908,-2.73438 5.01303,0 5.01303,5.651052 z M -62.41447,34.124712 q 7.929702,0 12.578148,3.007818 4.648446,2.916672 4.648446,7.929702 0,7.018242 -7.018242,11.119812 -11.119812,6.471366 -26.88807,6.471366 -6.653658,0 -10.572936,-2.552088 -5.286468,-3.281256 -5.286468,-9.1146 0,-7.838556 11.210958,-12.30471 11.39325,-4.5573 21.328164,-4.5573 z"
         id="path831" />
      <path
         d="m 78.041527,41.416392 v 83.216298 q 0,7.10939 0.546876,9.1146 0.638022,2.00521 3.372402,3.91928 3.281256,2.27865 4.375008,4.01042 1.184898,1.73178 1.184898,4.19272 0,7.29168 -14.674506,11.11981 -13.21617,3.3724 -26.43234,3.3724 -2.916672,0 -3.828132,-0.91146 -0.820314,-0.82031 -1.093752,-4.10157 -0.45573,-4.64844 -3.281256,-4.64844 -1.549482,0 -4.830738,2.73438 -9.296892,7.56511 -20.690142,7.56511 -14.12763,0 -25.429734,-10.48179 -6.653658,-6.28907 -10.755228,-14.49221 -5.46876,-10.66408 -5.46876,-21.6016 0,-12.85159 7.109388,-24.791714 6.562512,-11.028666 17.864616,-16.953156 9.4791839,-4.921884 18.68493,-4.921884 10.572936,0 18.958368,4.739592 1.36719,0.729168 2.187504,0.729168 2.916672,0 2.916672,-7.838556 0,-3.372402 -1.640628,-5.104176 -1.549482,-1.82292 -5.651052,-3.098964 -5.742198,-1.82292 -5.742198,-6.38022 0,-6.653658 13.21617,-10.390644 23.333376,-6.471366 31.263078,-6.471366 7.838556,0 7.838556,7.473972 z M 28.549249,87.26283 q -5.92449,0 -9.388038,6.289074 -4.648446,8.385436 -4.648446,22.057336 0,12.39585 4.466154,18.68493 3.19011,4.5573 8.65887,4.5573 5.92449,0 8.567724,-6.83595 2.73438,-6.9271 2.73438,-22.23963 0,-14.036482 -3.19011,-18.684928 -2.460942,-3.64584 -7.200534,-3.828132 z"
         id="path833" />
      <path
         d="m 143.57549,74.04666 v 52.95583 q 0,6.28907 1.09375,9.20574 1.1849,2.91667 4.64845,5.37762 2.82553,2.00521 3.73699,3.46354 1.0026,1.36719 1.0026,3.5547 0,11.75783 -29.80474,11.75783 -16.0417,0 -25.429733,-2.55209 -3.19011,-0.91146 -5.195322,-3.19011 -1.914066,-2.27865 -1.914066,-5.19532 0,-2.46094 1.002606,-3.82813 1.002606,-1.36719 5.104176,-4.37501 2.825529,-2.09636 4.010419,-6.83595 1.1849,-4.73959 1.1849,-14.12763 0,-3.00782 -0.45573,-11.21096 -0.36458,-8.29428 -0.54687,-9.661472 -0.54688,-3.736986 -5.104179,-5.742198 -5.651052,-2.460942 -5.651052,-7.29168 0,-5.742198 7.382826,-8.567724 10.208355,-3.919278 21.875035,-6.653658 11.66669,-2.73438 18.04691,-2.73438 5.01303,0 5.01303,5.651052 z M 125.52858,34.124712 q 7.92971,0 12.57815,3.007818 4.64845,2.916672 4.64845,7.929702 0,7.018242 -7.01824,11.119812 -11.11982,6.471366 -26.88807,6.471366 -6.65366,0 -10.572939,-2.552088 -5.286468,-3.281256 -5.286468,-9.1146 0,-7.838556 11.210957,-12.30471 11.39325,-4.5573 21.32816,-4.5573 z"
         id="path835" />
      <path
         d="m 211.38813,67.757586 q 16.22399,0 28.61984,8.111994 11.75783,7.74741 11.75783,19.231806 0,7.929704 -5.46876,12.851584 -5.10417,4.64845 -12.3047,4.64845 -7.56512,0 -11.39325,-5.46876 -1.1849,-1.73178 -3.46355,-8.841164 -2.46094,-7.656264 -9.38804,-7.656264 -5.01303,0 -8.47658,4.375008 -3.3724,4.375008 -3.3724,10.75523 0,10.93752 7.83856,19.4141 6.38022,6.83595 16.04169,6.83595 4.5573,0 7.65627,-0.72917 3.09896,-0.82032 8.11199,-3.19011 1.27604,-0.63802 2.82553,-0.63802 3.09896,0 5.46875,2.91667 2.3698,2.91667 2.3698,6.83595 0,4.10157 -3.3724,8.65887 -3.3724,4.46615 -8.84116,7.83855 -11.84898,7.29168 -27.98182,7.29168 -18.77608,0 -31.99225,-10.93752 -16.95316,-13.85419 -16.95316,-35.2735 0,-20.598994 15.76826,-34.088602 15.03909,-12.942732 36.54955,-12.942732 z"
         id="path837" />
      <path
         d="m 309.73464,67.66644 q 15.85941,0 26.88807,8.020848 5.83335,4.283862 8.112,9.843768 2.36979,5.46876 2.36979,15.130234 l -0.18229,13.58076 q 0,14.12763 2.00521,18.32034 1.00261,2.00521 1.91407,2.55209 0.91146,0.54688 3.82813,1.00261 2.91667,0.45573 2.91667,3.82813 0,4.37501 -3.55469,9.1146 -3.46355,4.73959 -9.02345,7.9297 -6.83595,4.01042 -14.30993,4.01042 -9.57033,0 -15.13023,-6.56251 -1.91407,-2.36979 -3.5547,-2.36979 -1.82292,0 -4.83073,2.27865 -9.1146,6.65365 -20.69015,6.65365 -11.94012,0 -19.32295,-5.10417 -4.83074,-3.3724 -7.65626,-8.75002 -2.82553,-5.46876 -2.82553,-11.39325 0,-9.47918 7.65627,-16.77086 11.94012,-11.4844 35.72923,-11.57554 5.28647,0 6.65366,-1.00261 1.36719,-1.09375 1.36719,-4.92188 0,-9.66148 -2.00522,-13.945342 -2.00521,-4.375008 -6.56251,-4.375008 -2.73438,0 -4.92188,1.640628 -2.09636,1.640628 -5.28647,6.015636 -8.11199,11.575546 -16.95316,11.575546 -4.46615,0 -7.29168,-2.643238 -2.82552,-2.643234 -2.82552,-6.927096 0,-4.375008 3.46355,-8.750016 3.55469,-4.375008 9.57033,-7.656264 16.49742,-8.750016 34.45318,-8.750016 z m -6.10678,52.77353 q -4.01042,0 -7.01824,3.28126 -2.91667,3.28126 -2.91667,7.83856 0,4.375 2.09636,7.10938 2.09635,2.64324 5.5599,2.64324 7.29168,0 7.29168,-12.30471 0,-5.01303 -1.09375,-6.74481 -1.00261,-1.73177 -3.91928,-1.82292 z"
         id="path839" />
      <path
         d="m 415.55517,86.260224 v 29.257866 q 0,19.4141 0.54688,22.60421 0.63802,3.19011 4.5573,4.92188 3.3724,1.45834 4.46615,2.73438 1.1849,1.27605 1.1849,3.64584 0,3.00782 -2.18751,5.46876 -2.09635,2.46094 -5.65105,3.46355 -6.56251,2.00521 -22.14848,2.00521 -17.59117,0 -24.70056,-2.64323 -3.28126,-1.1849 -5.37762,-3.64584 -2.09635,-2.55209 -2.09635,-5.28647 0,-2.1875 1.09375,-3.3724 1.1849,-1.1849 5.01303,-2.82553 3.55469,-1.54948 4.37501,-8.47658 1.45833,-11.84898 1.45833,-33.72402 0,-22.23962 -1.27604,-28.61984 -1.27605,-6.38022 -6.38022,-9.479184 -3.82813,-2.187504 -5.28647,-4.10157 -1.36719,-2.005212 -1.36719,-4.830738 0,-4.466154 4.28386,-7.74741 4.28386,-3.372402 13.6719,-6.197928 6.28908,-1.914066 16.31514,-3.64584 10.02606,-1.731774 14.58336,-1.731774 7.20053,0 7.20053,8.932308 0,2.916672 -0.91146,13.398462 -1.1849,16.315134 -1.36719,29.895888 z"
         id="path841" />
    </g>
    <g
       aria-label="mass"
       transform="scale(-1,1)"
       id="text9027"
       style="font-size:40px;line-height:1.25;fill:#205493">
      <path
         d="m -95.212921,200.20475 q 5.195322,0 5.195322,7.38283 0,0.0911 0,1.54948 -0.09115,1.45833 -0.09115,2.36979 0,4.92189 2.916672,4.92189 1.549482,0 4.830738,-3.91928 4.921884,-5.65105 12.395856,-8.93231 7.473972,-3.3724 15.312528,-3.3724 15.221382,0 21.145872,11.11981 2.27865,4.10157 3.736986,4.10157 1.002606,0 4.739592,-3.64584 11.84898,-11.57554 26.8880701,-11.57554 11.7578339,0 19.2318059,6.47137 7.838556,6.7448 7.838556,20.23441 0,2.91667 -0.182292,9.84377 -0.182292,2.36979 -0.182292,14.30992 0,7.65626 -0.09115,10.75523 -0.09115,1.91406 -0.09115,2.73438 0,5.83334 3.64584,10.20835 2.187504,2.64323 2.643234,3.55469 0.546876,0.82032 0.546876,2.27865 0,11.66669 -27.4349459,11.66669 -12.122418,0 -19.5963901,-2.91667 -7.382826,-2.91667 -7.382826,-7.65627 0,-1.82292 0.45573,-2.73438 0.546876,-1.0026 3.554694,-5.10417 2.825526,-3.73699 2.825526,-24.88286 0,-12.30471 -1.731774,-17.13545 -2.005212,-5.7422 -8.020848,-5.7422 -3.007818,0 -5.377614,1.91407 -2.27865,1.82292 -3.007818,4.64845 -0.820314,3.28125 -0.91146,17.50003 0.273438,15.31253 0.91146,18.59378 0.729168,3.28126 4.648446,9.1146 0.91146,1.36719 0.91146,3.46355 0,10.84637 -28.346406,10.84637 -17.044302,0 -22.968792,-2.55208 -4.739592,-2.00522 -4.739592,-7.10939 0,-2.27865 0.546876,-3.19011 0.638022,-0.91146 4.10157,-4.19272 2.005212,-1.91406 2.552088,-3.55469 0.638022,-1.73178 0.91146,-6.19793 0.638022,-10.02606 0.638022,-20.23441 0,-17.86462 -9.1146,-17.86462 -6.83595,0 -8.111994,7.65627 -1.093752,7.20053 -1.093752,20.59899 0,10.02606 0.364584,13.12503 0.45573,3.09896 2.27865,6.47136 2.187504,3.91928 2.187504,6.38022 0,5.92449 -8.294286,8.20314 -9.023457,2.46094 -19.869827,2.46094 -14.03648,0 -20.599,-2.1875 -6.56251,-2.27865 -6.56251,-7.10939 0,-1.82292 0.82032,-3.09896 0.91146,-1.27605 4.01042,-4.01043 4.10157,-3.73698 4.73959,-10.29949 1.00261,-11.30211 1.00261,-23.42453 0,-8.65887 -0.91146,-12.03127 -0.82032,-3.46355 -3.64584,-5.5599 -2.73438,-2.09636 -3.5547,-3.19011 -0.72916,-1.09376 -0.72916,-3.00782 0,-6.10678 9.57033,-9.66148 23.05993,-8.29428 34.544329,-8.38543 z"
         style="font-size:186.667px;font-family:'Cooper Black';-inkscape-font-specification:'Cooper Black, Normal'"
         id="path880" />
      <path
         d="m 92.638987,199.47558 q 15.859403,0 26.888073,8.02085 5.83334,4.28386 8.11199,9.84377 2.3698,5.46876 2.3698,15.13023 l -0.1823,13.58076 q 0,14.12763 2.00522,18.32034 1.0026,2.00522 1.91406,2.55209 0.91146,0.54688 3.82813,1.00261 2.91668,0.45573 2.91668,3.82813 0,4.37501 -3.5547,9.1146 -3.46355,4.73959 -9.02345,7.9297 -6.83595,4.01043 -14.30992,4.01043 -9.57033,0 -15.130239,-6.56252 -1.914066,-2.36979 -3.554694,-2.36979 -1.82292,0 -4.830738,2.27865 -9.1146,6.65366 -20.690142,6.65366 -11.940126,0 -19.322952,-5.10418 -4.830738,-3.3724 -7.656264,-8.75002 -2.825526,-5.46876 -2.825526,-11.39325 0,-9.47918 7.656264,-16.77086 11.940126,-11.4844 35.729232,-11.57554 5.286468,0 6.653658,-1.00261 1.36719,-1.09375 1.36719,-4.92188 0,-9.66148 -2.005212,-13.94534 -2.005212,-4.37501 -6.562512,-4.37501 -2.73438,0 -4.921884,1.64063 -2.096358,1.64063 -5.286468,6.01564 -8.111994,11.57554 -16.953156,11.57554 -4.466154,0 -7.29168,-2.64324 -2.825526,-2.64323 -2.825526,-6.92709 0,-4.37501 3.463548,-8.75002 3.554694,-4.37501 9.57033,-7.65626 16.497426,-8.75002 34.453188,-8.75002 z m -6.106782,52.77354 q -4.010424,0 -7.018242,3.28125 -2.916672,3.28126 -2.916672,7.83856 0,4.37501 2.096358,7.10939 2.096358,2.64323 5.559906,2.64323 7.29168,0 7.29168,-12.30471 0,-5.01303 -1.093752,-6.7448 -1.002606,-1.73178 -3.919278,-1.82292 z"
         style="font-size:186.667px;font-family:'Cooper Black';-inkscape-font-specification:'Cooper Black, Normal'"
         id="path882" />
      <path
         d="m 182.87353,199.56673 q 4.5573,0 14.8568,2.00521 2.09636,0.36458 3.46355,0.36458 1.54948,0 6.01563,-1.64062 2.09636,-0.82032 3.5547,-0.82032 4.19271,0 8.47658,5.37762 3.46354,4.28386 5.65105,9.38803 2.1875,5.10418 2.1875,8.84117 0,3.64584 -2.55209,6.10678 -2.55208,2.36979 -6.38022,2.36979 -3.19011,0 -5.74219,-1.54948 -2.46095,-1.54948 -8.02085,-6.83595 -5.83335,-5.65105 -9.66148,-5.65105 -2.55209,0 -4.46615,1.91407 -1.82292,1.82292 -1.82292,4.375 0,4.46616 8.56772,8.38544 15.40368,6.92709 23.60682,15.13023 6.92709,6.9271 6.92709,16.95316 0,12.66929 -11.11981,21.14587 -9.57033,7.38283 -23.42452,7.38283 -3.5547,0 -12.94273,-1.1849 -8.84117,-1.00261 -9.93492,-1.00261 -1.1849,0 -2.73438,0.27344 -2.64323,0.36458 -3.82813,0.36458 -4.28386,0 -6.7448,-2.1875 -3.73699,-3.3724 -6.9271,-10.57294 -3.19011,-7.29168 -3.19011,-12.487 0,-8.38543 6.56251,-8.38543 2.55209,0 4.64845,1.73177 2.1875,1.64063 9.02345,8.93231 3.73699,4.01043 6.19793,5.55991 2.46094,1.45833 5.28647,1.45833 3.00782,0 4.83074,-1.54948 1.82292,-1.64063 1.82292,-4.28386 0,-4.10157 -7.01825,-7.47397 -14.6745,-7.20054 -21.23701,-14.8568 -6.47137,-7.65626 -6.47137,-17.68232 0,-10.84638 6.65366,-18.68493 9.47918,-11.21096 25.88546,-11.21096 z"
         style="font-size:186.667px;font-family:'Cooper Black';-inkscape-font-specification:'Cooper Black, Normal'"
         id="path884" />
      <path
         d="m 271.83203,199.56673 q 4.5573,0 14.8568,2.00521 2.09635,0.36458 3.46354,0.36458 1.54949,0 6.01564,-1.64062 2.09636,-0.82032 3.55469,-0.82032 4.19272,0 8.47658,5.37762 3.46355,4.28386 5.65105,9.38803 2.18751,5.10418 2.18751,8.84117 0,3.64584 -2.55209,6.10678 -2.55209,2.36979 -6.38022,2.36979 -3.19011,0 -5.7422,-1.54948 -2.46094,-1.54948 -8.02085,-6.83595 -5.83334,-5.65105 -9.66147,-5.65105 -2.55209,0 -4.46616,1.91407 -1.82292,1.82292 -1.82292,4.375 0,4.46616 8.56773,8.38544 15.40367,6.92709 23.60681,15.13023 6.9271,6.9271 6.9271,16.95316 0,12.66929 -11.11981,21.14587 -9.57033,7.38283 -23.42453,7.38283 -3.55469,0 -12.94273,-1.1849 -8.84116,-1.00261 -9.93491,-1.00261 -1.1849,0 -2.73438,0.27344 -2.64324,0.36458 -3.82813,0.36458 -4.28387,0 -6.74481,-2.1875 -3.73698,-3.3724 -6.92709,-10.57294 -3.19011,-7.29168 -3.19011,-12.487 0,-8.38543 6.56251,-8.38543 2.55209,0 4.64844,1.73177 2.18751,1.64063 9.02346,8.93231 3.73698,4.01043 6.19793,5.55991 2.46094,1.45833 5.28646,1.45833 3.00782,0 4.83074,-1.54948 1.82292,-1.64063 1.82292,-4.28386 0,-4.10157 -7.01824,-7.47397 -14.67451,-7.20054 -21.23702,-14.8568 -6.47136,-7.65626 -6.47136,-17.68232 0,-10.84638 6.65365,-18.68493 9.47919,-11.21096 25.88547,-11.21096 z"
         style="font-size:186.667px;font-family:'Cooper Black';-inkscape-font-specification:'Cooper Black, Normal'"
         id="path886" />
    </g>
    <g
       aria-label="halifax"
       transform="scale(-1,1)"
       id="text9027-9"
       style="font-size:40px;line-height:1.25;fill:#e31c3d">
      <path
         d="m -190.16949,327.50053 -1.1849,38.19018 q -0.18229,6.83595 4.19272,6.83595 2.1875,0 4.28386,-3.00782 8.84116,-12.85159 23.60682,-12.85159 14.49221,0 23.05993,8.84117 3.82814,3.91927 5.37762,9.29689 1.64063,5.37761 1.82292,15.40367 l 0.82031,32.90371 q 0.0911,4.28386 1.09375,6.28907 1.09376,2.00521 4.92189,5.01303 2.64323,2.09636 2.64323,5.01303 0,9.84377 -29.71359,9.84377 -26.43234,0 -26.43234,-9.20575 0,-1.54948 0.45573,-2.36979 0.45573,-0.82032 3.19011,-4.37501 3.82813,-5.01303 3.82813,-25.06515 0,-12.12242 -2.27865,-17.68232 -3.00782,-7.56512 -10.75523,-7.56512 -5.55991,0 -8.20314,4.01042 -1.91407,2.91667 -1.91407,10.93752 v 17.59118 q 0.63803,11.66669 1.09376,13.21617 0.45573,1.54948 4.19271,5.7422 1.73178,1.91406 1.73178,4.46615 0,10.2995 -26.79693,10.2995 -31.35422,0 -31.35422,-10.66408 0,-2.46094 1.0026,-3.73699 1.00261,-1.36719 4.92189,-4.10157 3.46355,-2.46094 4.73959,-13.21617 1.36719,-10.84637 1.36719,-35.82038 0,-19.59639 -1.09375,-27.1615 -0.36459,-2.82553 -1.36719,-4.10157 -0.91146,-1.36719 -3.5547,-2.73438 -5.65105,-2.91668 -5.65105,-6.74481 0,-4.5573 4.28386,-7.38282 4.28387,-2.82553 16.40628,-6.10679 16.40628,-4.5573 26.15891,-4.5573 5.28646,0 5.10417,4.5573 z"
         style="font-size:186.667px;font-family:'Cooper Black';-inkscape-font-specification:'Cooper Black, Normal'"
         id="path907" />
      <path
         d="m -62.109358,356.57611 q 15.859404,0 26.88807,8.02085 5.833344,4.28386 8.111994,9.84376 2.369796,5.46876 2.369796,15.13024 l -0.182292,13.58075 q 0,14.12763 2.005212,18.32035 1.002606,2.00521 1.914066,2.55209 0.91146,0.54687 3.828132,1.0026 2.916672,0.45573 2.916672,3.82814 0,4.375 -3.554694,9.1146 -3.463548,4.73959 -9.023454,7.9297 -6.83595,4.01042 -14.309922,4.01042 -9.57033,0 -15.130236,-6.56251 -1.914066,-2.3698 -3.554694,-2.3698 -1.82292,0 -4.830738,2.27865 -9.1146,6.65366 -20.690142,6.65366 -11.940125,0 -19.322952,-5.10417 -4.83074,-3.37241 -7.65626,-8.75002 -2.82553,-5.46876 -2.82553,-11.39325 0,-9.47918 7.65626,-16.77086 11.940131,-11.4844 35.729236,-11.57555 5.286468,0 6.653658,-1.0026 1.36719,-1.09375 1.36719,-4.92189 0,-9.66147 -2.005212,-13.94533 -2.005212,-4.37501 -6.562512,-4.37501 -2.73438,0 -4.921884,1.64063 -2.096358,1.64062 -5.286468,6.01563 -8.111994,11.57554 -16.953155,11.57554 -4.466153,0 -7.291683,-2.64323 -2.82552,-2.64323 -2.82552,-6.9271 0,-4.375 3.46354,-8.75001 3.5547,-4.37501 9.570335,-7.65627 16.497425,-8.75001 34.453187,-8.75001 z m -6.106782,52.77353 q -4.010424,0 -7.018242,3.28126 -2.916672,3.28125 -2.916672,7.83855 0,4.37501 2.096358,7.10939 2.096358,2.64324 5.559906,2.64324 7.29168,0 7.29168,-12.30471 0,-5.01303 -1.093752,-6.74481 -1.002606,-1.73177 -3.919278,-1.82292 z"
         style="font-size:186.667px;font-family:'Cooper Black';-inkscape-font-specification:'Cooper Black, Normal'"
         id="path909" />
      <path
         d="m 43.711146,375.16989 v 29.25787 q 0,19.4141 0.546876,22.60421 0.638022,3.19011 4.5573,4.92188 3.372402,1.45834 4.466154,2.73438 1.184898,1.27604 1.184898,3.64584 0,3.00782 -2.187504,5.46876 -2.096358,2.46094 -5.651052,3.46355 -6.562512,2.00521 -22.148478,2.00521 -17.5911782,0 -24.70056622,-2.64323 -3.28125598,-1.1849 -5.37761398,-3.64584 -2.096358,-2.55209 -2.096358,-5.28647 0,-2.18751 1.093752,-3.3724 1.184898,-1.1849 5.01303,-2.82553 3.554694,-1.54948 4.375008,-8.47658 1.458336,-11.84898 1.458336,-33.72402 0,-22.23962 -1.276044,-28.61984 -1.276044,-6.38022 -6.38022,-9.47919 -3.828132,-2.1875 -5.286468,-4.10157 -1.3671898,-2.00521 -1.3671898,-4.83073 0,-4.46616 4.2838618,-7.74741 4.283862,-3.37241 13.6719,-6.19793 6.2890742,-1.91407 16.3151342,-3.64584 10.02606,-1.73178 14.58336,-1.73178 7.200534,0 7.200534,8.93231 0,2.91667 -0.91146,13.39846 -1.184898,16.31514 -1.36719,29.89589 z"
         style="font-size:186.667px;font-family:'Cooper Black';-inkscape-font-specification:'Cooper Black, Normal'"
         id="path911" />
      <path
         d="m 110.52116,362.95633 v 52.95582 q 0,6.28908 1.09375,9.20575 1.1849,2.91667 4.64844,5.37761 2.82553,2.00522 3.73699,3.46355 1.00261,1.36719 1.00261,3.5547 0,11.75783 -29.804746,11.75783 -16.041696,0 -25.429734,-2.55209 -3.19011,-0.91146 -5.195322,-3.19011 -1.914066,-2.27865 -1.914066,-5.19532 0,-2.46094 1.002606,-3.82813 1.002606,-1.36719 5.104176,-4.37501 2.825526,-2.09636 4.010424,-6.83595 1.184898,-4.73959 1.184898,-14.12763 0,-3.00782 -0.45573,-11.21096 -0.364584,-8.29428 -0.546876,-9.66147 -0.546876,-3.73699 -5.104176,-5.7422 -5.651052,-2.46094 -5.651052,-7.29168 0,-5.7422 7.382826,-8.56773 10.208352,-3.91927 21.87504,-6.65365 11.666688,-2.73438 18.046912,-2.73438 5.01303,0 5.01303,5.65105 z M 92.474248,323.03438 q 7.929702,0 12.578152,3.00782 4.64844,2.91667 4.64844,7.9297 0,7.01824 -7.01824,11.11981 -11.119812,6.47137 -26.88807,6.47137 -6.653658,0 -10.572936,-2.55209 -5.286468,-3.28126 -5.286468,-9.1146 0,-7.83856 11.210958,-12.30471 11.39325,-4.5573 21.328164,-4.5573 z"
         style="font-size:186.667px;font-family:'Cooper Black';-inkscape-font-specification:'Cooper Black, Normal'"
         id="path913" />
      <path
         d="m 180.06556,373.62041 h 11.30211 q 2.82552,0 4.01042,0.91146 1.27605,0.82031 1.09375,2.82553 l -0.72916,10.84637 q -0.1823,3.28126 -1.00261,4.19272 -0.82031,0.82031 -3.64584,0.82031 -0.63802,0 -3.00782,-0.18229 -1.64063,-0.0912 -2.73438,-0.0912 -3.82813,0 -5.19532,2.55209 -1.36719,2.46094 -1.36719,9.47918 0,9.57033 2.09636,16.13285 0.82031,2.82552 2.36979,4.19271 1.54949,1.27605 5.10418,2.27865 8.02085,2.3698 8.02085,8.84116 0,6.83595 -9.38804,9.84377 -9.29689,3.00782 -30.62506,3.00782 -31.62766,0 -31.62766,-12.57815 0,-3.09896 1.27605,-4.5573 1.36719,-1.45833 5.83334,-3.3724 4.83074,-2.1875 5.83334,-8.11199 1.54949,-8.93231 1.54949,-19.14066 0,-4.5573 -1.64063,-6.28908 -1.54948,-1.82292 -5.7422,-1.73177 -4.92188,0 -6.28907,-0.45573 -1.36719,-0.54688 -1.27605,-2.46094 l 0.72917,-11.4844 q 0.18229,-2.82553 0.91146,-3.46355 0.82031,-0.72917 4.37501,-0.91146 3.3724,-0.18229 3.3724,-3.28125 0,-1.27605 -2.46094,-5.83335 -4.19272,-7.56512 -4.19272,-15.13023 0,-11.11982 7.65627,-18.13806 11.21095,-10.2995 32.17453,-10.2995 17.2266,0 27.5261,8.112 7.9297,6.28907 7.9297,14.49221 0,5.92449 -3.91928,10.02606 -3.91928,4.01043 -9.75262,4.01043 -6.56251,0 -12.57815,-4.5573 -1.45834,-1.1849 -6.9271,-7.20054 -3.91927,-4.19271 -7.83855,-4.19271 -2.55209,0 -4.37501,1.82292 -1.82292,1.82292 -1.82292,4.46615 0,7.20053 13.6719,15.40367 4.19272,2.55209 5.65105,4.01043 1.54948,1.45833 2.73438,4.10157 0.63802,1.09375 2.91667,1.09375 z"
         style="font-size:186.667px;font-family:'Cooper Black';-inkscape-font-specification:'Cooper Black, Normal'"
         id="path915" />
      <path
         d="m 256.08131,356.57611 q 15.8594,0 26.88807,8.02085 5.83334,4.28386 8.11199,9.84376 2.3698,5.46876 2.3698,15.13024 l -0.18229,13.58075 q 0,14.12763 2.00521,18.32035 1.0026,2.00521 1.91406,2.55209 0.91146,0.54687 3.82814,1.0026 2.91667,0.45573 2.91667,3.82814 0,4.375 -3.5547,9.1146 -3.46354,4.73959 -9.02345,7.9297 -6.83595,4.01042 -14.30992,4.01042 -9.57033,0 -15.13024,-6.56251 -1.91406,-2.3698 -3.55469,-2.3698 -1.82292,0 -4.83074,2.27865 -9.1146,6.65366 -20.69014,6.65366 -11.94013,0 -19.32295,-5.10417 -4.83074,-3.37241 -7.65627,-8.75002 -2.82552,-5.46876 -2.82552,-11.39325 0,-9.47918 7.65626,-16.77086 11.94013,-11.4844 35.72923,-11.57555 5.28647,0 6.65366,-1.0026 1.36719,-1.09375 1.36719,-4.92189 0,-9.66147 -2.00521,-13.94533 -2.00521,-4.37501 -6.56251,-4.37501 -2.73438,0 -4.92189,1.64063 -2.09636,1.64062 -5.28647,6.01563 -8.11199,11.57554 -16.95315,11.57554 -4.46616,0 -7.29168,-2.64323 -2.82553,-2.64323 -2.82553,-6.9271 0,-4.375 3.46355,-8.75001 3.55469,-4.37501 9.57033,-7.65627 16.49743,-8.75001 34.45319,-8.75001 z m -6.10678,52.77353 q -4.01043,0 -7.01825,3.28126 -2.91667,3.28125 -2.91667,7.83855 0,4.37501 2.09636,7.10939 2.09636,2.64324 5.55991,2.64324 7.29168,0 7.29168,-12.30471 0,-5.01303 -1.09376,-6.74481 -1.0026,-1.73177 -3.91927,-1.82292 z"
         style="font-size:186.667px;font-family:'Cooper Black';-inkscape-font-specification:'Cooper Black, Normal'"
         id="path917" />
      <path
         d="m 338.38614,396.40691 -7.74741,-9.66148 q -5.01303,-6.28907 -7.83856,-8.47657 -2.82553,-2.18751 -7.10939,-3.09897 -7.20053,-1.54948 -7.20053,-6.92709 0,-5.55991 9.20574,-8.20314 9.2969,-2.73438 28.61985,-2.73438 14.03648,0 20.87243,1.54948 7.56512,1.82292 7.56512,7.29168 0,2.09636 -3.00782,6.83595 -0.54687,0.91146 -0.54687,1.91406 0,1.91407 2.82552,5.55991 2.91667,3.64584 4.37501,3.64584 1.64063,0 4.83074,-4.01042 3.19011,-4.10157 3.19011,-6.10679 0,-1.45833 -2.00521,-4.375 -1.73178,-2.55209 -1.73178,-4.01043 0,-2.00521 1.45834,-3.91928 1.54948,-1.91406 3.82813,-2.82552 4.10157,-1.64063 13.85419,-1.64063 8.47658,0 11.75784,1.64063 4.5573,2.36979 4.5573,6.7448 0,2.3698 -1.27605,3.5547 -1.27604,1.18489 -6.47136,3.64584 -2.82553,1.36719 -4.28387,3.09896 -1.45833,1.64063 -10.1172,13.30732 l -6.28908,9.47918 q -1.09375,1.54948 -1.09375,2.09636 0,0.36458 1.00261,2.00521 l 5.46876,8.29429 q 8.75001,13.21617 12.94273,17.22659 2.00521,1.91407 6.47137,3.91928 4.19271,1.82292 4.19271,6.19793 0,6.19792 -7.65626,8.56772 -7.65627,2.27865 -27.98182,2.27865 -15.58597,0 -21.7839,-1.45834 -8.20314,-2.00521 -8.20314,-8.47657 0,-3.82814 4.73959,-6.01564 2.64324,-1.1849 2.64324,-4.01042 0,-3.00782 -3.73699,-8.20314 -3.73698,-5.28647 -5.83334,-5.19533 -2.18751,0.0912 -6.47137,6.56252 -4.28386,6.47136 -4.28386,9.75262 0,1.54948 2.1875,4.19271 1.91407,2.18751 1.91407,4.92189 0,7.9297 -18.68493,7.9297 -10.20835,0 -14.67451,-2.00521 -4.46615,-2.00521 -4.46615,-6.56251 0,-2.91668 1.36719,-4.19272 1.45834,-1.36719 5.28647,-2.09636 4.01042,-0.72917 6.10678,-3.28125 2.09636,-2.55209 12.94273,-19.68754 l 6.56251,-10.84637 q 0.91146,-1.45834 0.91146,-2.09636 0,-0.54688 -1.18489,-2.09636 z"
         style="font-size:186.667px;font-family:'Cooper Black';-inkscape-font-specification:'Cooper Black, Normal'"
         id="path919" />
    </g>
  </g>
</svg>
