<?xml version="1.0" encoding="UTF-8" standalone="no"?>
<svg
   viewBox="5.576 -0.223 1183.9037 199.11606"
   version="1.1"
   id="svg6506"
   sodipodi:docname="kidical-mass-bikes-transparent_footer.svg"
   width="1183.9037"
   height="199.11606"
   inkscape:version="1.1.2 (0a00cf5339, 2022-02-04)"
   xmlns:inkscape="http://www.inkscape.org/namespaces/inkscape"
   xmlns:sodipodi="http://sodipodi.sourceforge.net/DTD/sodipodi-0.dtd"
   xmlns="http://www.w3.org/2000/svg"
   xmlns:svg="http://www.w3.org/2000/svg">
  <defs
     id="defs6510" />
  <sodipodi:namedview
     id="namedview6508"
     pagecolor="#ffffff"
     bordercolor="#666666"
     borderopacity="1.0"
     inkscape:pageshadow="2"
     inkscape:pageopacity="0"
     inkscape:pagecheckerboard="0"
     showgrid="false"
     fit-margin-top="0"
     fit-margin-left="0"
     fit-margin-right="0"
     fit-margin-bottom="0"
     inkscape:zoom="0.87072188"
     inkscape:cx="569.06805"
     inkscape:cy="-63.165979"
     inkscape:window-width="1920"
     inkscape:window-height="1043"
     inkscape:window-x="0"
     inkscape:window-y="0"
     inkscape:window-maximized="1"
     inkscape:current-layer="svgg" />
  <g
     id="svgg"
     transform="translate(398.32307,64.045612)">
    <path
       id="path0"
       d="m -277.15548,-63.681034 c -11.36376,4.061706 -16.53349,17.596432 -10.65835,27.890813 1.32062,2.312693 2.69278,4.741342 3.0503,5.398428 1.65884,3.043864 -8.32311,26.4864483 -17.85411,41.93446 -4.29683,6.960624 -7.61126,13.241613 -9.35061,17.71561 -0.68609,1.771561 -1.5622,3.945749 -1.94229,4.83153 -0.38007,0.88578 -1.54287,4.145452 -2.58325,7.247295 -4.46111,13.280266 -4.43212,13.219066 -5.67545,12.091709 -2.75397,-2.489849 -2.61868,-7.646702 0.24803,-9.334516 2.46087,-1.45268 2.40932,-2.74753 -0.22225,-5.601354 -5.49505,-5.958887 -11.76316,-5.308241 -18.81076,1.95838 -5.02157,5.176179 -5.5949,7.327821 -1.9616,7.327821 3.13728,0 3.54957,0.376859 3.54957,3.25323 0,4.464334 -0.5508,5.073107 -6.70939,7.41801 -1.46878,0.557235 -11.66653,3.475479 -14.67496,4.200209 -1.81988,0.438059 -1.95839,1.446238 -0.4896,3.607542 1.19822,1.761899 1.25942,2.170968 0.80848,5.26959 -0.26735,1.848864 -0.34788,5.337229 -0.18038,7.756215 0.30598,4.329051 0.28667,4.41924 -1.3174,6.174696 -0.89544,0.975969 -2.64768,3.175926 -3.89422,4.886287 l -2.26437,3.108284 -2.1452,-0.425174 c -6.40983,-1.269082 -12.68115,0.802033 -16.87814,5.569143 -11.56347,13.138536 -4.29363,32.013716 12.36549,32.097456 4.46112,0.0226 5.13431,-0.1385 9.34418,-2.25793 10.28794,-5.18261 13.99211,-19.57413 7.20865,-28.01321 -1.90041,-2.364226 -1.88108,-3.646192 0.0869,-6.152145 1.8392,-2.338461 3.38207,-1.745794 7.1571,2.753972 1.7941,2.138757 4.97326,5.201943 7.06692,6.809233 7.07014,5.42743 7.49531,7.62738 1.75546,9.08972 -3.10185,0.78915 -4.10359,2.57361 -2.51885,4.48366 0.8407,1.0114 16.11799,0.71507 18.10858,-0.34787 1.18533,-0.63454 1.48811,-2.13875 0.612,-3.0181 -0.72151,-0.71828 -0.94377,-3.89743 -0.28989,-4.09714 0.29633,-0.0902 0.6152,0.44129 0.7054,1.17891 0.29633,2.34811 2.35778,7.73366 3.53346,9.22178 3.6945,4.69624 4.59961,5.61422 7.03471,7.14099 16.23394,10.18163 36.10441,-5.82037 28.52213,-22.96909 -3.96831,-8.973762 -15.94083,-12.681156 -26.68293,-8.265138 -4.52554,1.858528 -4.48366,1.864971 -6.44848,-0.831024 -4.50621,-6.184358 -4.4128,-6.844667 0.96952,-6.844667 4.71558,0 6.82211,-0.908327 7.85929,-3.391733 1.02106,-2.438313 1.53964,-9.340958 0.88579,-11.772829 -0.29635,-1.108031 -0.76017,-2.87315 -1.02751,-3.923202 -0.27057,-1.053273 -1.8392,-4.04238 -3.49159,-6.648186 -4.01661,-6.335746 -3.94576,-6.586986 2.04213,-7.173211 1.73935,-0.170714 3.4175,-0.566899 3.72994,-0.879339 0.31244,-0.312438 0.87933,-0.566899 1.25942,-0.566899 3.55278,0 13.23517,-9.237886 20.31818,-19.380877 5.80107,-8.310232 7.67892,-10.184866 12.7778,-12.745577 5.73985,-2.886034 13.72476,-13.1610873 13.78918,-17.7478195 0.0161,-1.1821143 1.65239,-3.2016942 3.23069,-3.99084411 0.7827,-0.38974342 1.42369,-1.26908188 1.58474,-2.18063019 0.25124,-1.4075857 0.65387,-1.6394992 5.14396,-2.9697805 4.22921,-1.2497553 6.70617,-2.3416809 13.11278,-5.7785087 8.49383,-4.557743 11.10608,-10.887048 7.46954,-18.102134 -1.66848,-3.314428 -3.44004,-4.651152 -6.64818,-5.011905 -3.12438,-0.351092 -3.42395,-1.050053 -1.85208,-4.296842 5.45962,-11.257465 -9.75004,-19.902683 -18.81076,-10.690566 -2.8957,2.947233 -3.24358,2.808729 -3.24358,-1.288408 0,-9.112266 -8.97375,-16.478738 -16.7042,-13.718324 m -0.66675,36.577902 c 0.17071,0.444502 0.0773,1.111252 -0.21259,1.475228 -0.2899,0.367197 -1.13058,1.752236 -1.87141,3.079296 -6.93809,12.436358 -10.04959,16.1791835 -7.86895,9.466578 2.78618,-8.577576 8.79339,-17.042418 9.95295,-14.021102 m 328.573025,4.174444 c -7.914045,4.403134 -11.286454,9.508451 -6.277768,9.508451 2.737867,0 3.182368,0.943759 1.990591,4.254967 -0.866455,2.4125441 -0.860013,2.4801856 0.4445,4.3612607 0.724729,1.0500525 1.320618,2.5510478 1.320618,3.3369764 0,1.69425649 1.307735,2.5413848 3.926424,2.5413848 5.466074,0 5.888027,10.4135581 0.682857,16.8394931 -1.22721,1.513879 -4.068149,5.411313 -6.316421,8.658101 -4.760667,6.880098 -7.459881,9.775796 -11.022329,11.821143 -5.723752,3.288662 -9.144476,8.677428 -6.194022,9.766134 2.657341,0.979189 2.232167,5.108537 -2.035684,19.751294 -0.257682,0.88578 -0.766604,2.773298 -1.127357,4.193767 -0.834245,3.28222 -1.053274,3.37563 -8.780501,3.775037 -20.7594956,1.07582 -35.041499,14.381854 -32.45824,30.245379 2.866707,17.61899 14.658862,27.04045 31.063516,24.8115 25.935653,-3.52055 35.885383,-24.81794 21.709675,-46.46642 -6.248779,-9.543881 -1.153125,-7.968803 9.743584,3.008433 l 5.362999,5.404872 -2.315914,2.112989 c -4.399913,4.023054 -2.625131,6.242336 3.694513,4.622164 7.688574,-1.968043 11.247801,1.043612 11.247801,9.524552 0,2.55106 2.245051,4.12935 5.878361,4.12935 3.678405,0 3.69451,0.0257 1.890739,2.95368 -3.607542,5.85582 1.17245,6.05551 5.362998,0.22226 l 1.884297,-2.62192 2.557492,0.30921 c 2.251496,0.27057 2.840935,0.63454 4.950703,3.07608 8.989865,10.40712 18.272853,14.7265 27.311033,12.71014 11.33477,-2.5285 19.5838,-8.63877 25.46538,-18.85584 l 1.42047,-2.47375 6.32608,-0.28023 c 6.13283,-0.27056 15.61873,0.21259 18.53053,0.94376 1.03395,0.2609 1.69426,1.00174 2.38999,2.67989 1.47846,3.57533 2.81197,4.09714 10.10435,3.94574 l 6.18113,-0.12883 1.74258,1.88752 c 1.14991,1.24653 2.57359,2.09689 4.17767,2.49951 2.07111,0.51536 2.53492,0.88579 3.11149,2.48018 3.95864,10.94502 21.79988,14.06942 33.64355,5.8848 2.05502,-1.42046 6.54513,-6.13604 7.22476,-7.59193 0.37686,-0.80848 0.92765,-1.93262 1.22399,-2.50275 1.5332,-2.94723 3.05351,-12.25275 3.07285,-18.826853 0.004,-2.361008 0.25123,-7.917268 0.54113,-12.34617 2.14198,-32.606386 2.19674,-32.026602 -3.66551,-37.402484 -4.91529,-4.502986 -10.32016,-6.516124 -20.74337,-7.724006 -5.89447,-0.682856 -19.72876,3.755709 -28.4545,9.12515 -1.47523,0.908327 -3.2951,1.964822 -4.04237,2.348122 -7.82065,3.990844 -15.43836,17.818684 -17.95397,32.58384 -0.89546,5.253483 -0.68286,6.767362 1.04682,7.430892 1.63629,0.628099 0.918,1.958381 -1.05972,1.958381 -3.73315,0 -4.94104,2.631573 -2.60902,5.688318 2.20318,2.88604 0.52182,3.08252 -14.03398,1.6395 l -6.44204,-0.64098 -0.40907,-3.746047 C 139.74431,77.567135 117.44841,66.074535 97.887159,75.744037 l -3.22102,1.591184 -2.344903,-2.563932 c -7.9076,-8.648438 -6.113497,-21.580834 2.995553,-21.616265 3.510914,-0.01291 4.451447,-1.375376 4.438555,-6.416272 -0.01331,-5.491839 -1.703922,-15.650935 -3.179143,-19.090985 -0.25124,-0.592668 -0.763389,-1.919728 -1.133803,-2.953675 -0.85679,-2.396439 -6.367951,-10.61004 -11.524802,-17.1777001 -2.23539,-2.8506024 -5.102098,-7.35036769 -6.493579,-10.20097 -3.130831,-6.4098294 -3.630089,-6.97995 -6.110274,-6.97995 -2.496291,0 -4.26463,-1.5944049 -2.96656,-2.6734459 2.609027,-2.164526 -1.665267,-8.767617 -7.163547,-11.064204 -2.712099,-1.133799 -7.972027,-0.892222 -10.432886,0.47349 m 403.27493,5.74952 c -8.18784,1.404366 -14.48493,7.4727667 -11.18017,10.7775333 0.66676,0.666751 0.98241,1.4655636 0.77949,1.9905898 -2.30625,6.010423 -0.0192,11.7212916 4.82186,12.0272882 l 2.6799,0.1674937 -0.0322,2.683109 c -0.14172,12.217329 -4.83153,20.060513 -19.29391,32.239189 -8.31667,7.005719 -9.15736,8.158844 -6.97995,9.585756 1.82309,1.194998 1.69748,1.906844 -0.74728,4.225979 -2.20318,2.083999 -2.62513,4.064926 -2.71854,12.716586 -0.0547,5.156853 -3.03098,4.98936 -7.01216,-0.399407 -5.05056,-6.828562 -6.00398,-11.492599 -2.94401,-14.381854 2.34168,-2.206399 2.35134,-3.304766 0.0643,-6.880099 -3.88133,-6.068402 -10.02382,-7.35681 -15.84098,-3.324092 -3.82656,2.650899 -5.73664,8.393978 -2.92146,8.793385 1.46234,0.209366 1.91005,1.32706 1.23687,3.0954 -0.76982,2.022801 -0.63454,5.243821 0.26734,6.435598 1.87786,2.480186 -1.53964,7.752995 -5.02801,7.752995 -2.58326,0 -16.69778,-16.749304 -16.69778,-19.815715 0,-0.776266 -0.16748,-0.814918 4.28074,1.021063 4.0456,1.668489 4.84442,1.674931 4.84442,0.0451 0,-2.663783 -3.94575,-5.408093 -7.77232,-5.408093 -3.26612,0 -3.45293,-0.734392 -1.34317,-5.30824 1.88108,-4.084254 1.79089,-4.89273 -0.56046,-4.89273 -2.84092,0 -5.24704,2.750752 -5.66899,6.477471 -0.37041,3.266115 -0.6281,3.572112 -2.24182,2.657342 -2.54461,-1.443017 -7.81098,-2.753972 -8.25548,-2.055011 -1.42047,2.241831 4.17122,6.876877 8.29734,6.876877 1.9616,0 2.64768,0.769824 1.91973,2.148421 -2.35133,4.441787 -3.08251,8.05255 -1.63628,8.05255 1.36572,0 4.17766,-2.348123 5.21806,-4.35804 1.09515,-2.119431 1.23043,-2.045348 4.12612,2.170968 2.48664,3.620426 3.19526,6.148927 2.04857,7.314936 -0.85034,0.866454 0.83425,2.483406 3.56889,3.420724 3.08897,1.062936 4.81543,2.000253 4.4128,2.40288 -0.76016,0.760161 -8.65487,1.375376 -17.75748,1.385039 -9.92718,0.0097 -10.00771,0.01933 -10.30727,1.217545 -0.68929,2.770077 -1.06616,37.389601 -0.4155,38.175531 0.4928,0.59589 2.10653,0.77304 6.92841,0.76982 9.96261,-0.007 8.97376,-0.3221 9.73713,3.10185 3.45938,15.45766 21.2974,23.2171 35.15101,15.29016 5.86225,-3.35307 9.77901,-9.17345 11.31544,-16.80405 l 0.29954,-1.47844 h 13.94702 c 15.65416,0 14.90689,-0.24159 12.51367,4.04238 l -1.43658,2.56714 1.49777,1.28841 c 2.29982,1.97449 8.5647,0.14172 10.37491,-3.03742 0.76016,-1.3335 1.27552,-1.63306 2.82806,-1.63628 1.04683,0 3.30154,-0.36719 5.0119,-0.81169 3.7396,-0.97598 3.81048,-0.93731 5.45642,2.7894 4.41923,9.99161 19.31323,16.92645 30.79295,14.33353 11.25102,-2.54138 16.97799,-11.22525 16.95545,-25.70695 -0.029,-17.477252 -12.20767,-25.977524 -30.70599,-21.432665 l -5.63356,1.381818 -1.33673,-1.249755 c -3.07285,-2.86993 -4.18733,-5.717311 -4.18733,-10.716334 v -4.635048 l 2.71212,-2.879591 c 5.38232,-5.717311 9.90463,-13.003259 9.90463,-15.960155 0,-4.229199 -4.56098,-14.893996 -10.91283,-25.520141 -6.03941,-10.10434 -6.36794,-11.39919 -3.51735,-13.898702 2.09689,-1.8392019 1.92617,-3.1888095 -1.1338,-9.0993809 -2.35134,-4.5448592 -2.55104,-5.5788066 -1.36572,-7.1474434 1.17246,-1.5493102 0.99852,-2.824834 -0.76337,-5.5723637 -3.81047,-5.933119 -8.82238,-8.181391 -15.64449,-7.01216 m -734.24439,2.029242 c -0.49282,4.821867 -6.02976,15.71213439 -7.9656,15.67670317 -2.18707,-0.0386518 -1.80376,-1.77156097 1.78446,-8.04288607 0.59267,-1.0339474 2.00669,-3.6365311 3.14692,-5.7817311 2.13876,-4.032717 3.33376,-4.760667 3.03422,-1.852086 m 950.10426,-0.611994 c -5.946,1.053273 -13.28992,9.4279255 -8.72252,9.9561726 1.46234,0.1674931 1.47845,0.2125873 1.77156,4.99902229 0.43484,7.14744351 1.24009,8.48738731 5.62713,9.39893641 6.01042,1.2465343 5.17617,3.5173537 -4.97326,13.5347257 -3.97153,3.923203 -7.50176,7.372915 -7.84319,7.666027 -6.46136,5.585249 -9.78868,8.046109 -16.30802,12.0595 -4.50299,2.766856 -6.22622,5.066664 -5.81717,7.746553 0.81815,5.317903 0.91477,7.601607 0.40585,9.405378 -0.29954,1.059716 -0.83101,3.256451 -1.17888,4.879845 -1.03717,4.857299 -1.0243,4.83153 -2.72177,4.83153 -1.96483,0 -2.18707,-2.193514 -0.50248,-4.953928 2.64768,-4.345156 0.88257,-10.342696 -3.63653,-12.352611 -6.65785,-2.963339 -16.84594,0.389743 -12.74236,4.193767 1.10805,1.027506 1.36572,1.636279 1.0726,2.534942 -0.21258,0.650647 -0.36075,1.958381 -0.32532,2.905361 0.0547,1.594405 -0.11277,1.771561 -2.21928,2.315914 -1.25297,0.322102 -2.70243,0.711845 -3.21779,0.860012 -1.01785,0.296333 -1.31097,2.592921 -0.40263,3.153378 0.7215,0.447722 0.67963,5.472514 -0.0773,8.748291 -0.44773,1.939053 -0.45417,3.111505 -0.0257,4.341935 0.90832,2.609026 -0.96954,3.639753 -5.14398,2.828055 -1.69104,-0.331765 -4.51908,-0.718287 -6.28742,-0.863233 -3.13728,-0.254461 -3.27256,-0.331765 -5.85904,-3.362745 -4.84442,-5.681879 -12.87765,-13.257718 -18.30828,-17.267888 -7.7079,-5.691543 -9.31519,-8.094424 -5.43708,-8.123413 7.65959,-0.05475 -5.32113,-7.994571 -14.6943,-8.986646 -1.32706,-0.138503 -3.05675,-0.708624 -3.83945,-1.26586 -1.70392,-1.207883 -2.94079,-1.285187 -3.98118,-0.244798 -1.12091,1.120915 -0.99208,1.513879 1.37859,4.206653 1.18212,1.339944 2.14843,2.789403 2.14843,3.214577 0,0.425175 -0.96631,1.211103 -2.14843,1.742571 -3.26934,1.475228 -2.30303,2.686331 5.29214,6.638524 l 4.37092,2.274039 0.0643,3.059969 c 0.0322,1.684593 0.0934,3.411061 0.13204,3.839456 0.0419,0.428396 1.03718,1.030726 2.2225,1.339944 3.47226,0.911549 4.16478,1.790888 5.85582,7.463104 1.09836,3.66552 0.78593,4.1068 -2.89569,4.1068 -5.36622,0 -5.47896,2.328797 -0.28669,5.900909 4.03917,2.77652 2.54461,4.776773 -4.39024,5.87192 -14.18537,2.235388 -20.32463,8.506714 -20.26988,20.704714 0.0707,15.32562 13.93735,24.44109 26.91163,17.68984 11.40562,-5.93634 13.41232,-15.24187 6.38083,-29.6205 -4.89917,-10.023811 -3.37562,-10.001263 3.44971,0.0515 2.63159,3.87811 6.07807,8.86102 7.65959,11.07387 l 2.87638,4.02627 h 20.63706 c 11.35088,0 26.29642,-0.30922 33.20873,-0.68608 13.2706,-0.72473 14.40118,-0.58301 12.15934,1.54608 -1.87463,1.77801 -1.17567,6.92521 0.94054,6.92521 0.70218,0 7.80132,-3.73316 10.34914,-5.44354 l 2.20318,-1.47522 -0.42519,-2.58003 c -0.23512,-1.42048 -0.42838,-3.42717 -0.43483,-4.4579 l -0.011,-1.88107 0.8117,1.50421 c 0.44773,0.82458 1.2562,2.8796 1.7941,4.56741 3.04066,9.5149 7.83676,13.89226 18.65616,17.02953 16.66555,4.8283 29.48199,-3.28221 32.92526,-20.83355 1.27231,-6.49358 -2.61224,-16.974777 -8.35211,-22.518152 l -2.06789,-2.000253 1.48811,-3.117948 c 3.36597,-7.037929 2.99233,-7.318157 -10.89992,-8.191054 -8.69999,-0.547574 -15.46735,-1.281966 -15.91507,-1.726467 -1.54286,-1.542869 7.15711,-2.438311 14.80059,-1.523542 2.80228,0.334986 7.23442,0.843907 9.84666,1.130578 5.90413,0.647425 4.41601,-0.354312 15.94083,10.716333 5.3791,5.169737 10.8355,10.371685 12.12714,11.563462 2.63479,2.438313 2.80873,3.22102 1.27553,5.736633 -2.28694,3.74927 0.99529,6.68684 5.52727,4.94749 4.89917,-1.88107 5.32111,5.59491 0.56045,9.92396 -2.66701,2.42865 -2.79906,2.85704 -1.12414,3.65909 2.7572,1.32061 3.23069,1.19499 9.94006,-2.59293 2.62836,-1.48488 3.32411,-1.0565 3.33699,2.06789 0.004,0.96309 0.22546,2.17097 0.48637,2.68312 0.26412,0.51214 0.92765,1.8553 1.47845,2.98266 5.06345,10.39744 21.27161,13.57015 29.82664,5.8397 16.00203,-14.45593 1.43659,-40.256299 -18.96214,-33.585567 -6.38084,2.087222 -9.60508,-4.596395 -4.55131,-9.437588 2.4029,-2.299808 2.41255,-2.167746 -0.39617,-5.839709 -4.52232,-5.917014 -7.7369,-15.493106 -6.06197,-18.047375 1.18213,-1.806992 1.10482,-2.863487 -0.46705,-6.422715 -1.64915,-3.723498 -1.65882,-4.077811 -0.11906,-4.077811 3.60753,0 4.63827,-3.333755 2.01314,-6.519344 -4.44501,-5.391987 -13.43166,-5.701206 -18.7109,-0.644204 -2.60259,2.49629 -2.69278,3.584995 -0.3221,3.849119 2.2837,0.257681 2.54137,0.740834 2.4383,4.557743 -0.0869,3.166263 0.0161,3.517354 1.29808,4.35804 4.06814,2.667005 -2.59616,10.829069 -11.21881,13.740871 l -3.56245,1.204662 -5.23416,-1.649162 c -7.54685,-2.370671 -8.71931,-2.618689 -17.04565,-3.572111 -4.13256,-0.473491 -8.85781,-1.095147 -10.50052,-1.381818 -1.64272,-0.286671 -3.69451,-0.528247 -4.56418,-0.534689 -0.86646,-0.0064 -2.18063,-0.483153 -2.91824,-1.059716 l -1.34318,-1.050052 1.50423,-0.01291 c 4.03593,-0.03221 6.26166,-3.269335 7.38579,-10.748544 0.98564,-6.532228 1.01786,-31.514459 0.0451,-33.601681 -0.3994,-0.860012 -1.11768,-2.377113 -1.59763,-3.375629 -0.47993,-0.995294 -2.3771,-3.494807 -4.22275,-5.549817 -6.50968,-7.2601788 -7.75944,-12.7359131 -3.10828,-13.6088092 1.8392,-0.3446492 1.8714,-0.3994065 1.8714,-3.0019902 0,-5.5659226 -9.28942,-11.5119256 -16.1051,-10.3072646 m -872.52218,4.361262 c -6.46137,3.5463428 -8.99953,7.0411489 -5.94923,8.2007161 1.33028,0.5057002 1.37859,0.6635302 0.98885,3.07607379 -0.53469,3.29832481 -0.5218,3.65263701 0.28345,6.83500451 1.09193,4.3161666 1.50744,5.0988746 2.71854,5.0988746 3.83302,0 3.862,1.124136 0.17394,6.841446 -8.02034,12.433137 -21.37469,26.016179 -27.92946,28.409397 -1.76191,0.644204 -5.52083,3.414281 -6.10062,4.496543 -1.75867,3.28222 2.80551,4.673701 7.16355,2.180632 4.60928,-2.638016 5.20839,-2.280483 5.17617,3.076074 -0.0676,10.761427 -8.04609,22.099418 -15.55107,22.099418 -2.74754,0 -11.47972,5.098875 -14.8489,8.670985 -16.69456,17.705945 0.13203,50.502355 22.30556,43.480535 9.03818,-2.86025 17.48691,-13.45742 18.99757,-23.82588 0.86323,-5.91701 1.37538,-6.35507 7.16033,-6.14248 5.42421,0.1997 5.55626,0.32532 5.56592,5.30502 0.0194,7.74977 2.62836,10.87738 8.79661,10.53918 l 3.29188,-0.18038 v 2.41576 2.41577 l 4.64471,0.15461 c 3.99406,0.13204 4.81865,0.32533 5.90413,1.38505 20.20868,19.69974 47.47461,8.22325 44.98476,-18.93639 -0.77626,-8.468056 -5.47895,-15.148452 -13.92768,-19.789941 -7.53397,-4.132569 -7.6467,-4.857299 -0.81492,-5.163296 4.7961,-0.212587 5.43064,-0.679635 5.86869,-4.293619 0.14817,-1.214325 0.56369,-4.622163 0.92444,-7.575839 0.67642,-5.511165 1.45268,-7.514639 3.12439,-8.046108 0.67641,-0.212587 1.14346,-1.278745 1.59441,-3.642973 0.35108,-1.839203 1.03072,-4.593176 1.51065,-6.12316 1.14347,-3.642973 0.51537,-4.570627 -2.78296,-4.119684 -3.08252,0.421954 -4.20665,-2.39966 -1.32384,-3.31443 1.92295,-0.611993 1.08226,-5.52727 -1.35927,-7.968803 -3.98118,-3.984402 -10.41678,-3.491586 -15.46734,1.182114 -1.82632,1.691035 -1.8392,2.245051 -0.0902,3.890992 1.2562,1.175673 1.35605,1.562195 1.04683,4.032717 -0.3994,3.195252 0.32854,5.20839 2.19029,6.055517 1.88752,0.860013 1.59119,1.893961 -1.40114,4.902394 -1.47522,1.481669 -2.68311,2.94079 -2.68311,3.237125 0,0.554015 -2.50273,4.602837 -3.50125,5.668995 -1.00818,1.075821 -5.05699,3.440049 -5.89124,3.440049 -0.45416,0 -1.24331,0.202924 -1.75546,0.450942 -0.51214,0.244799 -1.64593,0.792372 -2.51883,1.214326 -1.77156,0.85357 -2.30624,2.206398 -2.38678,6.020086 -0.10307,5.018349 -2.13554,6.03297 -5.57881,2.782961 -3.90387,-3.681626 0.007,-9.952952 9.4086,-15.0937 6.60309,-3.610763 8.5518,-7.540408 6.88976,-13.885817 -7.23118,-27.610583 -10.45865,-33.018676 -23.03029,-38.6039246 -3.27577,-1.4559006 -4.24208,-6.2455575 -1.34316,-6.6642901 3.1115,-0.4477218 4.11645,-5.2019473 2.06467,-9.753248 -2.97301,-6.5966493 -9.44402,-8.3295583 -16.54316,-4.4353443 m -72.10253,1.4494586 c 1.29485,1.9744854 1.06937,3.3691871 -1.0114,6.2648835 -1.03394,1.4365749 -1.87786,2.79906605 -1.87786,3.02131643 0,0.77626582 -8.01067,8.18139107 -8.85136,8.18139107 -1.73934,0 -1.15634,-4.1712208 0.82458,-5.9073509 0.17072,-0.148167 1.24331,-1.83920247 2.38678,-3.755709 5.04734,-8.4712817 6.95097,-10.2138537 8.52926,-7.8045311 M 69.796216,-7.165043 c 1.552532,1.4075856 1.320618,3.6075418 -0.338208,3.1920302 -3.662298,-0.9179907 -5.073104,-2.341681 -3.691287,-3.7234985 0.669972,-0.6699722 3.043863,-0.3575333 4.029495,0.5314683 m -329.709566,1.9712903 c 0,1.6620463 -6.59666,5.51438587 -8.31346,4.85407677 -1.33672,-0.51214218 -2.00991,-2.18385117 -1.36893,-3.38851267 0.93088,-1.7361294 9.68239,-3.0631895 9.68239,-1.4655641 m -32.21342,5.46607057 c -0.33821,1.03072643 -0.82459,1.87463393 -1.0726,1.87463393 -0.25124,0 -0.54114,0.4219537 -0.64421,0.9405379 -0.0999,0.5153632 -0.33176,0.6957403 -0.51537,0.4026275 -0.18037,-0.2963339 0.30922,-1.9068442 1.08872,-3.57855357 1.46878,-3.15659923 2.22571,-2.91824373 1.14346,0.36075424 m 19.73196,-0.966306 c 1.4559,3.13727383 -0.22869,6.88331983 -3.79114,8.42618793 -0.94054,0.4090702 -2.67988,1.73613 -3.85878,2.9536762 -2.10655,2.167746 -8.50671,7.173211 -10.88061,8.509934 -2.12587,1.19822 -1.28195,-0.209366 2.06469,-3.433607 1.7941,-1.729687 4.82829,-5.475734 6.73837,-8.3263365 3.05996,-4.5545221 7.62737,-9.5921974 8.68708,-9.5793133 0.20293,0.00322 0.66998,0.6538667 1.04039,1.44945867 m 9.81444,4.57384873 c -1.51709,7.7207854 -5.50149,12.6779344 -13.21261,16.4465274 -2.49629,1.220767 -4.75745,2.219283 -5.02479,2.219283 -0.57979,0 -4.32905,4.287177 -4.32905,4.950708 0,0.405849 -4.58352,7.250516 -8.66455,12.938837 -5.04411,7.028265 -10.85805,11.888785 -15.37071,12.85187 -4.18732,0.892222 -4.05526,-1.256198 0.31244,-5.218052 1.09192,-0.988853 2.70566,-2.795846 3.59144,-4.013391 0.88578,-1.220767 2.12909,-2.844161 2.76364,-3.613985 0.63454,-0.766602 1.9004,-2.886034 2.81517,-4.70591 1.99704,-3.971517 3.80403,-5.733416 9.37961,-9.147697 4.72201,-2.889254 14.12417,-11.698744 22.61478,-21.1814271 5.74308,-6.419493 6.11028,-6.5290077 5.12463,-1.5267633 m -24.71165,-1.4977743 c 0,0.4283957 -0.20937,0.9051066 -0.46705,1.0629366 -0.25769,0.15783 -0.63132,1.5396473 -0.83425,3.0696318 -0.56046,4.2130933 -3.08895,8.1105283 -4.63827,7.1538853 -0.98241,-0.605552 -0.27057,-6.2681048 1.08871,-8.6903118 1.501,-2.6670043 4.85086,-4.46111281 4.85086,-2.5961419 m -7.51786,9.5535447 c 0,4.316167 -6.99606,18.823641 -8.40042,17.419276 -0.68287,-0.682855 5.73664,-18.504759 6.92841,-19.239152 0.97596,-0.6055515 1.47201,0.01291 1.47201,1.819876 m 17.30332,0.708624 c -1.90041,3.391735 -10.27506,10.294381 -16.9007,13.921249 -6.5741,3.6011 -4.82508,1.745793 6.03942,-6.400167 3.69128,-2.766855 7.42122,-5.778509 8.28768,-6.693279 1.67493,-1.765119 3.41106,-2.322355 2.5736,-0.827803 m -26.68293,9.469799 c -2.03246,7.266622 -9.33453,21.390795 -9.837,19.033007 -0.14817,-0.69574 1.44302,-6.1296 2.53817,-8.667764 0.25768,-0.592668 0.87932,-2.042127 1.38504,-3.22102 4.60927,-10.761428 8.11374,-14.993848 5.91379,-7.144223 m 227.60371,2.950455 c -5.27281,1.433354 -10.085013,8.532481 -7.16999,10.574608 0.992074,0.69574 1.104809,1.143462 0.814918,3.25323 -0.28345,2.074338 -0.170714,2.547827 0.72795,3.111506 0.686078,0.428396 1.066158,1.249756 1.066158,2.306251 0,2.096884 0.850349,2.931128 2.99877,2.931128 2.083999,0 2.441532,1.417249 1.810213,7.163548 -0.615215,5.620679 -3.053527,6.983171 -13.512179,7.550071 -4.886287,0.264124 -7.2634,0.937316 -7.746553,2.196736 -0.467048,1.223988 0.805255,2.415765 2.583258,2.415765 2.467301,0 4.383808,2.39966 3.974738,4.973254 -1.317396,8.220044 -1.153124,8.091203 -8.094423,6.525787 -9.89497,-2.232167 -10.41034,-1.974485 -10.87094,5.427419 -0.59589,9.53744 1.05005,12.60063 6.7738,12.60063 5.414538,0 4.142235,2.605805 -3.51413,7.211868 -14.76193,8.87712 -7.43089,32.11034 8.487387,26.90517 12.246319,-4.00693 16.343456,-17.75103 7.759438,-26.01939 -3.353082,-3.22747 -2.821613,-8.097648 0.88256,-8.097648 3.011653,0 10.17198,10.378118 10.403894,15.077598 0.190041,3.79436 0.222251,3.85233 2.21284,3.9232 1.333503,0.0516 1.472007,0.23192 1.352829,1.78122 -0.190041,2.45442 1.127357,3.01166 6.032971,2.55428 3.765372,-0.35432 3.958634,-0.31567 4.583511,0.89543 2.541385,4.94105 8.706417,7.8142 15.138794,7.05726 2.354566,-0.277 2.695994,-0.15783 4.699468,1.65238 4.145453,3.74604 8.93511,2.21606 9.527778,-3.04063 0.289891,-2.55427 -0.908329,-5.20839 -2.348124,-5.20839 -1.175673,0 -1.362492,-1.14991 -0.776266,-4.78 0.927653,-5.76885 -0.75694,-11.48294 -4.296841,-14.56223 -3.053527,-2.657346 -5.891246,-2.985889 -17.396729,-2.000257 -2.138757,0.183597 -2.30625,-1.091926 -0.795592,-6.168254 1.520322,-5.121421 1.70392,-5.424198 3.533459,-5.813941 10.729218,-2.299808 14.285224,-13.035467 8.468062,-25.571678 -1.890739,-4.077811 -9.22178,-12.481452 -10.922479,-12.520104 -4.618942,-0.09985 -8.039666,-9.105824 -3.697731,-9.737144 1.449459,-0.212587 2.328797,-2.940791 1.819877,-5.646447 -0.876119,-4.673701 -9.846659,-10.188087 -14.510696,-8.922226 m 137.672838,4.325829 c 1.971265,2.386776 5.395208,8.93511 5.395208,10.320149 0,1.04361 -3.758929,2.786182 -11.089971,5.143968 -9.057511,2.911803 -9.489128,3.633311 -8.509937,14.265898 0.615214,6.719048 0.334986,7.446999 -2.863487,7.446999 -5.082768,0 -6.88976,-3.797583 -5.981433,-12.555536 0.860012,-8.278022 1.059716,-8.725744 5.382323,-12.024069 2.045348,-1.562194 4.747784,-4.180883 6.007202,-5.817161 7.0637,-9.186349 8.825597,-10.210634 11.660095,-6.780248 m 607.957862,0.502479 c 0.58622,1.523543 -17.3774,14.955197 -19.4614,14.55579 -1.9455,-0.376859 -0.67964,-2.125873 4.46755,-6.171474 9.33129,-7.337484 14.32387,-10.126887 14.99385,-8.384316 m -871.58869,5.05056 c -1.03716,4.615722 -3.53023,6.928414 -7.46954,6.928414 -2.27727,0 -2.04858,-0.492815 2.47052,-5.295357 4.46112,-4.744562 5.79462,-5.1794 4.99902,-1.633057 m 491.18301,-1.269082 c -4.95072,4.064928 -8.34566,10.883827 -5.42098,10.883827 2.05501,0 2.77329,1.523543 2.48985,5.285693 -0.30277,4.026275 0.98241,7.060477 2.99233,7.060477 3.62364,0 4.3065,1.823097 3.83623,10.20097 -0.28024,5.011907 -4.01338,9.12515 -8.27802,9.12515 -1.97449,0 -2.63158,0.260902 -3.52379,1.394701 -0.93732,1.191777 -1.82632,1.504217 -6.04909,2.135537 -2.75718,0.41229 -5.30179,1.091926 -5.74629,1.536426 -0.85034,0.85357 -0.9502,0.763382 1.81665,1.629836 1.90685,0.595888 2.00026,4.828309 0.26091,11.643987 -0.82781,3.240347 -2.10011,4.551302 -4.86697,5.01835 -9.08971,1.536421 -16.92002,13.173971 -13.44776,19.999321 0.26091,0.51214 0.78915,1.60084 1.17245,2.4222 1.15635,2.4673 4.86375,5.84616 7.88829,7.18288 9.7307,4.30326 18.40812,-2.57682 18.69479,-14.82959 0.11907,-5.02156 0.36397,-5.34367 3.08573,-4.05203 5.28571,2.50917 6.64176,10.25571 1.97449,11.28001 -1.95515,0.4284 -4.30005,2.5897 -4.30005,3.95864 0,1.14346 3.77181,1.61051 10.04635,1.24975 l 2.8023,-0.16105 0.15138,-5.95566 0.15139,-5.95568 3.48837,-0.10307 c 4.27429,-0.12883 4.83153,0.0516 4.83153,1.55576 0,4.81543 6.0523,11.84692 11.57955,13.45098 10.4329,3.0342 17.14228,-3.05352 17.14228,-15.55431 0,-10.78397 -4.28718,-16.285471 -12.27531,-15.754003 -4.40313,0.289892 -4.80576,0.10307 -4.45145,-2.083999 0.19005,-1.175673 0.8278,-2.380334 1.54609,-2.921465 2.60903,-1.968044 1.2111,-11.537694 -3.94896,-27.017916 -0.58946,-1.771561 -1.28841,-3.704173 -1.55254,-4.296841 -0.26413,-0.589446 -1.34961,-3.604322 -2.4061,-6.699722 l -1.92618,-5.627121 1.40115,-2.766857 c 1.47523,-2.915023 1.80055,-5.974992 0.88577,-8.329557 -1.89073,-4.854078 -15.92148,-8.287685 -20.04439,-4.905614 m -592.65803,4.567407 c -0.57978,2.264376 -1.46232,3.552784 -4.95713,7.244074 -6.9252,7.314936 -8.39076,6.764142 -3.17271,-1.19822 6.78024,-10.339474 9.808,-12.590968 8.12984,-6.045854 m 761.92585,-1.307734 c 5.17617,5.894466 4.77033,12.091708 -0.82136,12.552314 -3.38852,0.277008 -4.34838,2.071117 -4.34838,8.129855 0,4.908835 -0.004,4.931381 -2.1001,7.608049 -4.94105,6.326083 -6.04586,11.176939 -3.79437,16.643011 1.7619,4.280735 1.72003,4.560964 -0.68284,4.570626 -1.7458,0.0032 -12.19801,-1.291628 -15.50922,-1.926169 -1.64272,-0.31244 -1.71037,-0.702183 -2.12587,-11.96931 l -0.37365,-10.178423 2.46408,-1.73613 c 3.26934,-2.30625 3.98763,-4.07137 3.08896,-7.582282 -0.38007,-1.478448 -0.47671,-2.847381 -0.22225,-3.056748 0.25768,-0.209366 1.91329,-1.571857 3.68485,-3.021316 1.77156,-1.452681 4.79288,-4.235641 6.71261,-6.181137 1.91651,-1.948718 4.33227,-3.849119 5.36622,-4.225979 1.03394,-0.376859 2.59936,-0.988853 3.47869,-1.362491 2.1291,-0.901886 3.17271,-0.550794 5.18263,1.73613 m 213.5343,0.599109 c 0.89543,0.5669 -0.39941,5.182622 -2.13232,7.620933 -1.47201,2.061453 -9.24754,5.040897 -16.7332,6.40983 -8.11052,1.481669 -4.43534,-1.935833 13.15465,-12.236655 4.12612,-2.415765 4.53198,-2.541385 5.71087,-1.794108 m -862.93381,2.016359 c 0.54114,2.151641 -0.24158,8.094423 -1.16601,8.861025 -1.10803,0.921212 -5.3952,1.455902 -15.52531,1.942276 -10.3878,0.499258 -10.38135,0.496037 -10.42322,5.408093 -0.0581,6.809235 -2.88281,10.497303 -4.06816,5.311461 -1.74256,-7.620933 -0.0934,-11.151171 5.975,-12.777786 9.33774,-2.505954 10.29437,-2.90536 15.52209,-6.509681 6.18114,-4.26141 9.01242,-4.915277 9.68561,-2.235388 m 833.63542,16.623696 c -0.51215,0.776265 -1.02108,1.130578 -1.13703,0.785929 -0.23514,-0.705404 0.83747,-2.203178 1.58152,-2.203178 0.26413,0 0.0643,0.637762 -0.44449,1.417249 m -413.26654,3.414281 v 4.026275 l -4.02627,0.0097 c -6.45493,0.01291 -14.85535,4.760668 -12.68115,7.166769 1.18854,1.314177 1.57507,8.171729 0.51858,9.228223 -0.47027,0.467048 -1.87786,0.421953 -5.77852,-0.196482 -5.27925,-0.837465 -7.09268,-0.676414 -10.78075,0.943759 -6.36474,2.795845 -12.61673,1.900402 -12.61673,-1.806993 0,-4.406355 8.65489,-15.799103 13.68933,-18.021607 6.10705,-2.695993 20.42448,-5.578806 27.11133,-5.456407 l 4.56418,0.08053 v 4.026275 M 67.896293,58.34414 c 0.660309,2.625132 -2.080777,5.855815 -3.965074,4.676922 -1.681372,-1.053274 -1.533205,-4.296841 0.238356,-5.256705 2.261155,-1.223988 3.314427,-1.062937 3.726718,0.579783 M -73.61922,63.906842 c 1.536426,2.87315 -4.564185,5.784952 -11.01911,5.253484 -2.573595,-0.212587 -3.44327,-2.541385 -1.362491,-3.655858 4.055264,-2.170968 11.55702,-3.137274 12.381601,-1.597626 m 733.92873,0.141726 c 0.62488,0.963084 -1.36249,5.646447 -2.60259,6.119938 -0.89544,0.344648 -3.79758,-1.146684 -4.84763,-2.49307 -1.17245,-1.504217 -0.85679,-4.222757 0.51858,-4.486881 1.807,-0.34787 6.52579,0.238355 6.93164,0.860013 m -15.3707,6.545112 c 3.62043,6.557996 9.37961,18.456444 9.37961,19.380877 0,1.771561 -4.22277,7.192538 -5.60458,7.192538 -0.30277,0 -3.39495,-2.834498 -6.86722,-6.300315 -6.88331,-6.860773 -6.90587,-6.909088 -5.72696,-11.953205 0.31243,-1.327061 0.78915,-3.623648 1.0597,-5.098875 0.94377,-5.150411 1.49456,-7.527524 2.12266,-9.12515 l 0.6281,-1.61051 1.31739,1.61051 c 0.72474,0.88578 2.38678,3.543122 3.6913,5.90413 m -844.71894,-5.630344 c 0.88578,0.47027 1.01784,1.207883 1.03716,5.768848 0.01,2.87637 0.0613,5.591691 0.10945,6.036191 0.27057,2.457638 -0.15782,4.892729 -0.90832,5.1794 -1.81344,0.698961 -2.96334,-1.32706 -5.08277,-8.93833 -0.37042,-1.330282 -1.01784,-3.211357 -1.44303,-4.180885 -1.5042,-3.446491 2.48664,-5.900908 6.28744,-3.865224 m -141.8344,1.204662 c 0.13852,0.72795 -0.97274,1.48489 -4.82509,3.28222 -6.41305,2.992327 -6.99283,3.15982 -8.69352,2.512395 -2.59616,-0.988852 -1.2562,-4.322608 1.73935,-4.322608 0.80526,0 1.69425,-0.199704 1.97448,-0.441281 0.56367,-0.489594 4.04882,-1.568636 6.14893,-1.900401 2.33846,-0.370418 3.47226,-0.10307 3.65585,0.869675 m 123.84179,3.340198 c 0.58943,0.615215 2.63801,2.924686 4.55129,5.127864 1.91651,2.206399 3.68807,4.158336 3.93931,4.338713 0.79881,0.570122 0.16105,2.892477 -0.79236,2.892477 -0.85357,0 -9.49235,-9.376389 -10.67447,-11.586009 -1.62661,-3.037422 0.31889,-3.539901 2.97623,-0.773045 M 80.332645,68.284209 c 1.414018,1.414027 0.347863,9.018856 -1.262645,9.018856 -4.238862,0 -5.124643,-3.971518 -1.749014,-7.817416 1.784445,-2.032464 2.067895,-2.145199 3.011659,-1.20144 m 388.397025,1.188555 c -0.16105,2.193516 -0.90189,2.782962 -2.55748,2.029243 -2.39645,-1.091925 -1.34962,-4.061706 1.32382,-3.749266 1.12415,0.132061 1.32708,0.41551 1.23366,1.720023 m 148.78536,-0.07086 c 0.8729,1.330282 0.29311,4.277515 -1.53321,7.814196 -2.58325,4.995802 -4.76389,0.705402 -2.67988,-5.276031 1.39469,-4.013391 2.72497,-4.812205 4.21309,-2.538165 M 48.53795,71.205678 c 4.283957,1.423691 5.314683,2.724984 3.636532,4.580291 -1.217546,1.339944 -1.855308,1.243314 -4.235642,-0.647425 -4.821867,-3.833014 -4.544859,-5.643227 0.59911,-3.932866 M -333.227,74.255985 c 1.36248,3.291882 0.6893,4.725235 -3.18237,6.806014 -2.88282,1.552532 -3.90066,4.393472 -3.99728,11.157614 -0.0643,4.354819 -1.35927,3.881329 -8.42298,-3.088959 -7.41478,-7.314936 -7.05402,-8.284463 5.41775,-14.497811 7.81743,-3.894213 8.71932,-3.926423 10.18488,-0.376858 m 259.820355,-2.531722 c 2.11621,0.814917 0.383301,2.757193 -4.976476,5.578806 -4.647931,2.447975 -5.137527,4.744563 -1.993812,9.311969 3.198473,4.641489 2.151642,6.690059 -3.098621,6.068402 -3.37885,-0.402628 -3.559227,-0.708625 -3.56889,-6.145707 -0.01291,-6.387282 4.805762,-12.690819 11.170498,-14.613767 0.789149,-0.238356 1.478448,-0.454164 1.526763,-0.479932 0.04831,-0.02577 0.47349,0.10307 0.940538,0.280229 m -8.790164,1.839202 c -2.415765,2.064674 -5.288915,2.657342 -6.28421,1.298071 -1.414028,-1.932612 0.154609,-2.847381 4.918498,-2.866708 l 3.22102,-0.0161 -1.855308,1.584742 m -139.064311,3.903876 c 12.93883,15.451234 12.32039,14.137057 8.31989,17.647969 -1.96161,1.720025 -4.49977,0.702183 -4.54487,-1.823097 -0.0483,-2.625131 -4.54486,-8.719302 -8.74183,-11.853354 -2.39323,-1.787666 -2.46086,-2.406102 -0.59268,-5.230936 1.61051,-2.435091 2.66701,-2.196736 5.55949,1.259418 m 963.28791,-0.969527 c -0.15784,5.259926 -1.97772,6.116718 -9.06718,4.271073 -5.91702,-1.539647 -4.86697,-3.729941 2.81195,-5.865478 4.76389,-1.323839 6.3293,-0.924432 6.25523,1.594405 M 88.491493,80.971806 c 0,1.217546 -2.902136,5.385546 -4.818643,6.918751 -2.502728,2.000253 -3.250012,-0.611994 -1.38182,-4.837971 0.753721,-1.70392 1.368933,-3.372409 1.368933,-3.707395 0,-0.338207 0.405846,-1.059715 0.898667,-1.607288 1.143462,-1.262641 3.932863,1.030726 3.932863,3.233903 M 117.8221,78.588251 c 10.76787,2.866708 21.48098,14.971301 19.00725,21.477759 l -0.58946,1.54609 -5.45641,-0.37364 c -6.57409,-0.45416 -6.31319,-0.3221 -9.14447,-4.631823 -2.96656,-4.51587 -4.77033,-5.459629 -9.63085,-5.050559 -4.17444,0.351091 -4.40635,0.177156 -8.71286,-6.471029 -2.92468,-4.515871 -3.02776,-5.437082 -0.71185,-6.445261 2.28693,-0.992074 11.58602,-1.024285 15.23865,-0.05154 m 549.91831,1.317396 c 0,3.613986 -4.18411,5.369441 -5.669,2.377114 -1.40758,-2.837719 -0.40585,-4.441787 2.77652,-4.441787 h 2.89248 v 2.064673 m 56.77691,-1.591183 c 0.51215,0.260903 1.54287,0.75694 2.29015,1.101589 5.14719,2.377113 9.94008,10.771091 6.14893,10.771091 -0.78916,0 -9.18313,-8.187834 -10.97723,-10.706671 l -1.16603,-1.639499 h 1.38505 c 0.76339,0 1.807,0.212587 2.31913,0.47349 m -906.47555,2.882813 c 3.72028,4.116463 4.85408,8.010677 2.89569,9.965835 -1.69425,1.694258 -5.75273,-3.163041 -6.50001,-7.775541 -0.18039,-1.130579 -0.44128,-2.599364 -0.57656,-3.266115 -0.43162,-2.090442 1.85209,-1.504217 4.18088,1.075821 M 459.7978,80.121458 c 1.81987,2.045348 3.00521,7.382578 1.63628,7.382578 -0.79882,0 -4.03272,-3.307987 -5.41775,-5.536934 -1.70715,-2.757193 1.55252,-4.348377 3.78147,-1.845644 m 242.50094,-0.19004 c 1.2111,1.004958 1.14346,1.037168 -4.01663,1.945496 -8.87391,1.562195 -23.02706,1.004958 -23.02706,-0.905106 0,-2.08078 24.64724,-3.030981 27.04369,-1.04039 m -408.17733,1.404365 c 0.45739,2.447975 -0.23836,4.77033 -2.61546,8.732185 -1.19178,1.984149 -2.57038,4.635048 -3.0632,5.891245 -1.39792,3.539902 -4.2453,3.411061 -5.21482,-0.235133 -0.47672,-1.79733 -1.09515,-2.753973 -2.1613,-3.356304 -3.65586,-2.05501 -1.03397,-8.290906 3.15981,-7.511418 1.43979,0.270566 2.35779,-0.141725 2.35779,-1.050052 0,-1.581522 1.72324,-3.324094 3.77181,-3.810468 2.77652,-0.663529 3.43683,-0.428396 3.76537,1.339945 M 21.458848,82.221564 c 3.994065,1.194998 0.193262,9.292643 -6.512903,13.872934 -4.380587,2.989106 -5.02157,3.878107 -4.912055,6.793132 0.286671,7.52752 9.147697,3.50125 9.196012,-4.174443 0.0161,-3.008433 7.711122,-13.892259 9.82089,-13.892259 4.271072,0 9.263653,9.44403 9.221781,17.445042 -0.07409,14.25301 -8.793385,23.3524 -22.369984,23.3524 -16.9071342,0 -27.005032,-10.57139 -24.5796045,-25.732732 1.4526809,-9.067171 9.2217807,-17.180921 16.4980651,-17.222793 0.8181393,-0.0032 1.8488657,-0.241577 2.2933654,-0.528248 1.120916,-0.724729 8.835259,-0.666752 11.344433,0.08697 m 79.130792,5.417755 c 5.31792,5.520829 6.19724,7.695017 4.24531,10.4812 -0.93088,1.330281 -14.124169,1.845644 -16.378886,0.637762 -2.177407,-1.16601 -0.392959,-5.955666 4.53197,-12.169014 2.863487,-3.607542 3.153381,-3.568891 7.601606,1.050052 m -337.50813,-2.348124 c 0.58622,0.370418 0.5218,1.120916 -0.34466,4.151895 -0.583,2.032464 -1.38826,4.876625 -1.79088,6.319642 -0.51215,1.839203 -1.25942,3.03098 -2.50595,3.981181 -4.78,3.652634 -4.00373,7.624144 1.49455,7.624144 3.40462,0 4.79609,-1.59118 3.82658,-4.3677 -2.11299,-6.065174 2.04856,-17.04241 5.90735,-15.576846 5.4242,2.061453 10.68733,12.890516 9.49234,19.519376 -3.09862,17.15515 -22.12842,24.89204 -31.07318,12.62962 -10.92248,-14.9713 -5.53693,-30.23571 12.13036,-34.377942 1.71036,-0.399406 2.10334,-0.386523 2.86349,0.09664 m 42.81379,3.907098 c 3.98441,3.829793 4.1809,4.70913 2.08401,9.295863 -1.20144,2.628351 -1.53965,2.966561 -2.95369,2.966561 h -1.59439 v -3.472261 c 0,-2.563931 -0.3511,-4.242084 -1.33995,-6.406609 -1.70714,-3.733162 -1.75224,-5.688321 -0.13206,-5.688321 0.27057,0 2.04213,1.488111 3.93608,3.304767 m 867.21133,-2.009915 c 0,1.236872 -3.29511,3.746047 -3.81691,2.905361 -0.27379,-0.447722 0.0806,-1.233651 0.98885,-2.180631 1.53643,-1.604068 2.82806,-1.935833 2.82806,-0.72473 m 25.1304,1.056495 c 0.65386,0.653868 0.37041,1.491333 -2.04859,6.049076 -3.48191,6.567658 -3.53345,6.632078 -5.4886,6.632078 -0.87934,0 -2.25149,0.54758 -3.04386,1.21433 -1.35606,1.14024 -2.00349,1.22721 -10.41678,1.37859 -10.52309,0.19326 -10.75499,0.0644 -7.62738,-4.196986 2.47052,-3.365966 3.83946,-3.765373 7.45988,-2.174188 4.96359,2.18385 4.85087,2.219283 7.06692,-2.17741 1.08549,-2.154862 2.57359,-4.873403 3.30799,-6.036191 l 1.33672,-2.116211 4.34838,0.334986 c 2.62513,0.199704 4.64793,0.634542 5.10532,1.091926 M -64.751752,88.074102 c 0.802033,1.301292 -0.299555,4.335493 -1.510658,4.161557 -1.67171,-0.241576 -2.985887,-2.737867 -2.045348,-3.874886 0.805255,-0.969527 3.021316,-1.146683 3.556006,-0.286671 m 536.100132,0.318881 c 1.30128,1.175673 1.26907,1.385039 -0.76661,4.92494 -2.20318,3.826571 -3.04708,6.245557 -3.85556,11.048097 -0.71506,4.23886 -1.73934,5.11498 -3.26611,2.7894 -0.95666,-1.45912 -0.50571,-3.5399 2.73465,-12.671488 2.70242,-7.608049 3.03742,-8.007456 5.15363,-6.090949 m -623.05479,1.575079 c 8.52604,5.656111 13.27383,15.795878 10.89671,23.265428 -5.86226,18.43067 -25.29466,20.65317 -35.99167,4.11647 -3.23713,-5.00548 -3.3241,-4.92817 5.7624,-5.34046 5.29535,-0.23836 8.16851,-0.16427 8.91578,0.23514 3.49803,1.87142 5.87515,-0.79881 3.96185,-4.45145 -2.02923,-3.87811 -4.1551,-10.017376 -3.72349,-10.745326 1.68459,-2.828055 6.30675,-9.005972 6.7416,-9.005972 0.2931,0 1.84242,0.866454 3.43682,1.92617 m 651.42875,1.674931 c 7.07013,3.204915 9.93363,8.535707 9.5632,17.789697 -0.8439,21.03003 -28.59944,23.27507 -34.79345,2.81195 -1.35928,-4.49333 -1.12092,-4.68659 6.23911,-5.04412 5.60136,-0.27057 6.14249,-0.20615 8.42942,1.0114 3.76536,2.00347 6.53222,1.26587 8.1685,-2.18385 2.18385,-4.60606 -1.9455,-8.780503 -7.19898,-7.273066 -2.04213,0.583005 -3.21458,-0.341428 -6.06518,-4.779994 -2.61225,-4.068147 -2.1613,-4.338713 6.78992,-4.07459 4.5996,0.135283 5.87514,0.386522 8.86746,1.742573 m -54.77022,1.082262 c 8.21682,3.878108 12.11103,14.033975 5.41775,14.133835 -16.23394,0.24157 -22.94333,-0.51214 -23.54565,-2.65412 -0.43807,-1.56542 -0.33177,-10.362021 0.15138,-12.333285 l 0.31244,-1.269082 7.08625,0.238355 c 6.53545,0.219029 7.36003,0.363975 10.57783,1.884297 m 257.65261,-1.330282 c 2.30303,2.808731 3.25001,4.100359 3.25001,4.425682 0,0.206146 0.44127,1.017842 0.97919,1.800551 8.33278,12.146464 -1.64595,30.248604 -16.61081,30.126194 -10.71632,-0.0869 -23.20101,-10.90637 -22.38609,-19.40019 l 0.17072,-1.78446 4.56419,-0.42517 c 8.34566,-0.77304 11.62466,-0.24802 14.20147,2.28049 4.61895,4.53196 10.83874,-0.22226 7.77555,-5.94601 -0.62488,-1.16279 -0.68608,-1.04039 3.91354,-7.936592 2.58969,-3.88455 3.16947,-4.325829 4.14223,-3.140495 m -221.70281,5.102096 c 3.48836,3.910321 5.08922,6.532231 4.17122,6.831781 -1.57507,0.51859 -10.60682,1.41081 -11.11251,1.09837 -1.73292,-1.0726 1.71035,-11.019109 3.81045,-11.019109 0.20937,0 1.61697,1.391481 3.13084,3.088958 m 276.03819,0.04188 c 3.06963,4.406351 1.3174,6.235891 -2.27726,2.373892 -4.31938,-4.647932 -4.59317,-5.714089 -1.39792,-5.39843 1.33995,0.128841 2.084,0.740835 3.67518,3.024538 M 277.96477,94.451722 c 1.9133,1.211103 2.89571,8.967318 1.30452,10.287938 -1.12735,0.9341 -4.29685,-2.48985 -4.80254,-5.182622 -0.60555,-3.230683 1.52999,-6.34863 3.49802,-5.105316 m 358.65092,1.114472 c 2.10011,1.494554 5.28892,5.968546 5.69154,7.981686 0.42195,2.10333 -1.55575,3.08896 -7.26984,3.62043 -4.68981,0.43483 -4.84119,0.18682 -3.53024,-5.87514 1.54609,-7.169992 2.14198,-7.839965 5.10854,-5.726976 m -803.58973,2.496291 c 2.34812,0.940538 4.48688,4.422465 5.10853,8.326335 0.39297,2.44476 -0.20292,2.61547 -9.75002,2.76042 l -6.43238,0.0966 0.11592,-1.87786 c 0.11919,-1.98414 1.18212,-8.877123 1.56219,-10.139764 0.28667,-0.956642 6.24878,-0.425174 9.39572,0.834245 m -160.8513,1.066157 c 0.75051,1.797332 0.74405,2.048572 -0.0967,2.976222 -2.1613,2.39 -4.69947,0.0193 -3.24678,-3.030979 1.16601,-2.441533 2.30947,-2.422206 3.34341,0.05475 m 884.5533,-1.401143 c 2.4673,0.686077 2.7443,1.108031 1.97449,3.024532 -0.33821,0.83103 -0.79882,1.99704 -1.02751,2.5897 -1.50423,3.89421 -2.41577,5.26959 -4.32262,6.53223 -2.61868,1.73291 -3.17592,3.49802 -1.72001,5.45963 2.59292,3.48515 6.36473,1.56542 5.79783,-2.95367 -0.3672,-2.94723 0.32532,-5.77207 2.43187,-9.8982 1.64272,-3.217796 2.46086,-3.240343 5.30179,-0.14173 12.62962,13.76664 -4.53841,34.16215 -19.16506,22.76942 -9.67917,-7.54043 -5.975,-24.32517 6.05229,-27.417343 2.27083,-0.586227 2.4512,-0.583005 4.67693,0.03543 M -73.6322,100.40733 c 0,1.40437 -0.186819,1.59119 -1.591184,1.59119 -2.528501,0 -3.688068,-2.882816 -1.494553,-3.710618 1.765118,-0.666751 3.085737,0.238355 3.085737,2.119428 m -297.66403,-0.34459 c 1.24653,1.90362 -0.37685,7.30527 -2.19995,7.30527 -2.74109,0 -4.48366,5.33723 -2.36746,7.25374 2.76042,2.49628 7.10559,0.013 6.91232,-3.95219 -0.36076,-7.34393 3.81367,-10.43289 6.63531,-4.90884 4.9507,9.69849 -1.41082,19.01369 -13.00327,19.03301 -14.0372,0.0226 -17.90566,-18.64326 -5.11498,-24.6859 3.78147,-1.784443 7.9849,-1.806989 9.13803,-0.0451 m 75.95166,1.31096 c 6.38405,3.09218 7.36325,10.25251 2.52528,18.47578 -3.94897,6.71583 -15.36427,6.95418 -22.53426,0.47348 -2.26116,-2.03889 -3.84267,-4.63181 -3.33375,-5.45641 0.46704,-0.75694 8.17172,-0.64097 9.55354,0.14495 5.75918,3.26933 11.54414,0.99208 10.95146,-4.30972 -0.37686,-3.36597 -1.55575,-4.40958 -4.99902,-4.40958 -1.59441,0 -3.00843,-0.27379 -3.22746,-0.6281 -0.65709,-1.06294 -0.43805,-5.34046 0.29633,-5.794619 1.3786,-0.85357 7.7369,0.03543 10.76788,1.504219 m 1048.01039,0.20292 c 1.41724,0.8729 2.58003,1.74902 2.58326,1.9455 0.0192,1.01462 -3.0471,7.03793 -3.59143,7.05081 -2.27405,0.0515 -5.98788,-8.61945 -4.47079,-10.44577 0.83747,-1.011398 1.95839,-0.715063 5.47896,1.44946 m 24.80507,-0.42839 c 10.34593,4.57385 12.86154,15.33207 5.63357,24.09967 -7.08303,8.59367 -23.04641,4.44179 -26.02907,-6.76735 -1.25941,-4.72525 0.86001,-13.62171 3.04709,-12.81001 2.93757,1.08548 8.00424,6.61276 8.00424,8.72896 0,4.06494 4.5513,5.72054 7.11523,2.58649 2.56714,-3.14371 0.81814,-6.39051 -3.45616,-6.40661 -2.2064,-0.01 -9.5632,-6.50325 -9.5632,-8.4423 0,-2.412545 10.48764,-3.0954 15.2483,-0.98885 m -963.76139,-0.0902 c 2.35457,1.92617 2.26759,6.84467 -0.11919,6.84467 -2.61546,0 -3.71706,-1.13058 -3.71706,-3.81691 0,-3.25646 1.81022,-4.686587 3.83623,-3.02776 m -125.41041,0.43484 c 0.66676,1.07582 1.18534,6.68362 0.73118,7.88827 -1.21755,3.23391 -4.20988,1.02106 -4.30651,-3.18559 -0.0967,-4.17444 2.10976,-7.076577 3.57533,-4.70268 m 262.857795,1.03395 c 4.329051,0.0354 9.070393,12.91951 6.200464,16.84593 -1.29485,1.76835 -6.293873,-2.90857 -6.293873,-5.88802 0,-1.59118 -1.76834,-3.23713 -3.939308,-3.66874 -2.109768,-0.41874 -5.994318,-3.04709 -5.994318,-4.05527 0,-1.50099 5.678658,-3.9393 8.05255,-3.45937 0.592668,0.1224 1.478449,0.22225 1.974485,0.22547 m 349.010405,1.10481 c 0.50248,1.91651 -1.86497,4.11003 -3.58822,3.32409 -1.71036,-0.77948 -1.76834,-1.54931 -0.23835,-3.17914 1.46877,-1.55898 3.43682,-1.63628 3.82657,-0.14495 m 24.33803,2.43831 c 7.74333,7.74012 0.83746,23.11727 -8.89324,19.81251 -4.26463,-1.44946 -7.8915,-5.72376 -8.19427,-9.65663 l -0.16428,-2.14843 3.40461,0.0967 c 2.22894,0.0643 3.72995,0.38975 4.33872,0.94055 1.90685,1.72647 5.4081,0.53468 5.4081,-1.84243 0,-0.99851 -1.32063,-2.68311 -2.10332,-2.68311 -0.2287,0 -0.8407,-1.02751 -1.35928,-2.28371 -0.51859,-1.25297 -1.17567,-2.72819 -1.45912,-3.27255 -0.60234,-1.1499 -0.56367,-1.21754 1.15634,-1.85208 2.15808,-0.79882 5.35013,0.37363 7.86574,2.88925 m -215.95974,-0.50898 c 3.88133,2.39643 6.1747,2.52528 9.56966,0.53791 3.38529,-1.98737 14.91977,-1.81021 17.3001,0.2609 1.94549,1.69426 -7.20865,13.07091 -12.5652,15.61873 -13.68934,6.50646 -31.656186,-0.93731 -34.864322,-14.45271 -0.943764,-3.97797 -1.075823,-3.91677 8.716078,-3.91677 h 8.680654 l 3.16303,1.95194 m 97.9641,0.63132 c 3.20814,3.76215 7.9817,3.61076 9.71138,-0.30922 0.66998,-1.51388 1.0275,-1.73613 2.78941,-1.73613 7.98491,0 -5.38555,11.7213 -14.80704,12.98071 -5.36299,0.71829 -6.26166,-0.41229 -7.48243,-9.43437 -0.65064,-4.81542 6.0813,-5.84937 9.78868,-1.50099 m 62.15925,-1.79733 c 0.65386,1.70714 -1.89718,7.65315 -3.58177,8.35211 -2.88282,1.19178 -1.97127,5.35655 1.17244,5.35655 1.85531,0 2.31914,-0.73117 2.39323,-3.75892 0.0643,-2.69923 1.93261,-8.17496 2.89892,-8.49706 0.86967,-0.28989 3.65907,2.48985 4.70268,4.6898 2.43187,5.11498 -1.02428,12.9614 -6.78024,15.39004 -8.46807,3.57856 -17.96041,-10.02703 -12.08204,-17.3162 2.93113,-3.63009 10.42643,-6.4356 11.27678,-4.21632 m -36.17205,0.42195 c 0.60232,1.63306 -2.4673,11.28002 -4.76067,14.97452 -2.99877,4.81866 -12.86798,8.72253 -18.50154,7.31495 -5.29858,-1.32706 -8.34888,-4.78322 -4.51265,-5.11498 2.52207,-0.22225 9.15736,-2.24183 11.85013,-3.60755 3.06641,-1.55897 6.85434,-6.01687 9.35706,-11.01589 1.57831,-3.15016 5.74953,-4.77033 6.56767,-2.55105 m -325.722429,1.40759 c 5.153632,2.96334 2.741088,14.68141 -3.887771,18.88485 -8.45196,5.35975 -16.90713,-3.33053 -12.79711,-13.1611 1.30773,-3.12761 5.10209,-6.1908 7.66925,-6.1908 0.54435,0 -0.41552,4.54486 -1.35927,6.44204 -1.23043,2.47052 -0.93088,4.19699 0.79559,4.63182 2.06789,0.5186 3.939304,-1.50743 2.9118,-3.15014 -0.96309,-1.54288 -0.79559,-6.1747 0.283449,-7.82387 0.963085,-1.46556 3.436829,-1.32384 6.384062,0.3672 m 406.032109,-0.0644 c 0.27057,0.51536 0.66355,1.72325 0.86968,2.68311 l 0.37364,1.74579 h -2.72821 c -3.24355,0 -3.61076,-1.01462 -1.33672,-3.71706 1.59441,-1.89395 2.13232,-2.02923 2.82161,-0.71184 m -371.135579,4.28074 c 1.935834,1.35282 2.960118,2.47696 3.1566,3.46581 0.231914,1.15636 0.734393,1.58153 2.422207,2.03568 1.571858,0.42195 2.699215,1.29164 4.312946,3.31444 2.663784,3.34986 2.676668,3.53668 0.251239,3.99084 -7.885056,1.48168 -14.172488,-3.30799 -14.172488,-10.79686 0,-4.72202 0.08697,-4.76388 4.029496,-2.00991 m 252.096359,0.82458 c 0.68284,2.57037 -1.87142,3.69773 -4.21633,1.86496 -0.72472,-0.57012 -0.90832,-2.66056 -0.28667,-3.28221 1.03073,-1.03073 4.11003,-0.0612 4.503,1.41725 m 198.53723,1.72002 c 0.83424,0.43161 1.65883,1.1499 1.82953,1.59764 1.01463,2.64445 5.6239,2.48983 8.08154,-0.26736 1.19178,-1.33672 1.84243,-1.59441 4.22276,-1.66527 5.56915,-0.16748 6.3744,0.25769 4.87662,2.57683 -4.51909,7.00894 -14.83601,7.29561 -22.42151,0.62488 -3.39818,-2.9859 -0.89223,-5.09244 3.41106,-2.86672 m -10.92571,0.16105 c 0.31889,0.21581 1.2723,1.67816 2.11944,3.25001 3.45614,6.40661 7.41478,8.4423 16.22427,8.34245 7.68535,-0.0903 7.65637,-0.10956 2.95369,2.10654 -9.4988,4.47399 -18.35338,1.04361 -23.4426,-9.08972 -2.1323,-4.2453 -0.97274,-6.73515 2.1452,-4.60928"
       stroke="none"
       fill-rule="evenodd"
       style="fill:#205493;fill-opacity:1;fill-rule:nonzero;stroke-width:3.22102;paint-order:fill"
       fill="#ffffff" />
  </g>
</svg>
