<?xml version="1.0" encoding="UTF-8" standalone="no"?>
<svg
   viewBox="5.576 -0.223 24.697025 30.475576"
   version="1.1"
   id="svg4"
   sodipodi:docname="favicon.svg"
   inkscape:version="1.1.2 (0a00cf5339, 2022-02-04)"
   width="24.697025"
   height="30.475574"
   xmlns:inkscape="http://www.inkscape.org/namespaces/inkscape"
   xmlns:sodipodi="http://sodipodi.sourceforge.net/DTD/sodipodi-0.dtd"
   xmlns="http://www.w3.org/2000/svg"
   xmlns:svg="http://www.w3.org/2000/svg">
  <defs
     id="defs8" />
  <sodipodi:namedview
     id="namedview6"
     pagecolor="#ffffff"
     bordercolor="#666666"
     borderopacity="1.0"
     inkscape:pageshadow="2"
     inkscape:pageopacity="0"
     inkscape:pagecheckerboard="0"
     showgrid="false"
     inkscape:zoom="3.4828875"
     inkscape:cx="-26.845541"
     inkscape:cy="0.71779522"
     inkscape:window-width="1920"
     inkscape:window-height="976"
     inkscape:window-x="1920"
     inkscape:window-y="27"
     inkscape:window-maximized="1"
     inkscape:current-layer="svgg"
     fit-margin-top="0"
     fit-margin-left="0"
     fit-margin-right="0"
     fit-margin-bottom="0" />
  <g
     id="svgg"
     transform="matrix(-1,0,0,1,245.826,-34.589908)">
    <path
       id="path0"
       d="m 228.83198,34.788 c 1.537,1.262 2.591,3.379 1.683,3.379 -0.638,0 -0.861,0.473 -0.773,1.641 0.094,1.25 -0.305,2.192 -0.929,2.192 -1.125,0 -1.337,0.566 -1.191,3.167 0.087,1.556 1.246,2.833 2.57,2.833 0.613,0 0.817,0.081 1.094,0.433 0.291,0.37 0.567,0.467 1.878,0.663 0.856,0.128 1.646,0.339 1.784,0.477 0.264,0.265 0.295,0.237 -0.564,0.506 -0.592,0.185 -0.621,1.499 -0.081,3.615 0.257,1.006 0.652,1.413 1.511,1.558 2.822,0.477 5.253,4.09 4.175,6.209 -0.081,0.159 -0.245,0.497 -0.364,0.752 -0.359,0.766 -1.51,1.815 -2.449,2.23 -3.021,1.336 -5.715,-0.8 -5.804,-4.604 -0.037,-1.559 -0.113,-1.659 -0.958,-1.258 -1.641,0.779 -2.062,3.184 -0.613,3.502 0.607,0.133 1.335,0.804 1.335,1.229 0,0.355 -1.171,0.5 -3.119,0.388 l -0.87,-0.05 -0.047,-1.849 -0.047,-1.849 -1.083,-0.032 c -1.327,-0.04 -1.5,0.016 -1.5,0.483 0,1.495 -1.879,3.678 -3.595,4.176 -3.239,0.942 -5.322,-0.948 -5.322,-4.829 0,-3.348 1.331,-5.056 3.811,-4.891 1.367,0.09 1.492,0.032 1.382,-0.647 -0.059,-0.365 -0.257,-0.739 -0.48,-0.907 -0.81,-0.611 -0.376,-3.582 1.226,-8.388 0.183,-0.55 0.4,-1.15 0.482,-1.334 0.082,-0.183 0.419,-1.119 0.747,-2.08 l 0.598,-1.747 -0.435,-0.859 c -0.458,-0.905 -0.559,-1.855 -0.275,-2.586 0.587,-1.507 4.943,-2.573 6.223,-1.523 m -1.702,14.797 c -0.142,0.76 0.074,1.481 0.812,2.711 0.37,0.616 0.798,1.439 0.951,1.829 0.434,1.099 1.318,1.059 1.619,-0.073 0.148,-0.558 0.34,-0.855 0.671,-1.042 1.135,-0.638 0.321,-2.574 -0.981,-2.332 -0.447,0.084 -0.732,-0.044 -0.732,-0.326 0,-0.491 -0.535,-1.032 -1.171,-1.183 -0.862,-0.206 -1.067,-0.133 -1.169,0.416 m 5.016,4.072 c -0.594,0.376 -0.899,2.784 -0.405,3.194 0.35,0.29 1.334,-0.773 1.491,-1.609 0.188,-1.003 -0.475,-1.971 -1.086,-1.585 m -6.893,2.85 c -0.156,0.595 0.579,1.276 1.114,1.032 0.531,-0.242 0.549,-0.481 0.074,-0.987 -0.456,-0.484 -1.067,-0.508 -1.188,-0.045 m -7.556,0.757 c -2.404,2.403 -0.26,7.177 2.761,6.151 1.324,-0.45 2.45,-1.777 2.544,-2.998 l 0.051,-0.667 -1.057,0.03 c -0.692,0.02 -1.158,0.121 -1.347,0.292 -0.592,0.536 -1.679,0.166 -1.679,-0.572 0,-0.31 0.41,-0.833 0.653,-0.833 0.071,0 0.261,-0.319 0.422,-0.709 0.161,-0.389 0.365,-0.847 0.453,-1.016 0.187,-0.357 0.175,-0.378 -0.359,-0.575 -0.67,-0.248 -1.661,0.116 -2.442,0.897 m 17.335,-0.52 c -0.203,0.53 0.589,2.376 1.112,2.593 0.895,0.37 0.612,1.663 -0.364,1.663 -0.576,0 -0.72,-0.227 -0.743,-1.167 -0.02,-0.838 -0.6,-2.538 -0.9,-2.638 -0.27,-0.09 -1.136,0.773 -1.46,1.456 -0.755,1.588 0.318,4.024 2.105,4.778 2.629,1.111 5.576,-3.113 3.751,-5.376 -0.91,-1.127 -3.237,-1.998 -3.501,-1.309 m -13.703,0.548 c -0.084,0.16 -0.206,0.535 -0.27,0.833 l -0.116,0.542 h 0.847 c 1.007,0 1.121,-0.315 0.415,-1.154 -0.495,-0.588 -0.662,-0.63 -0.876,-0.221"
       stroke="none"
       fill-rule="evenodd"
       style="fill:#205493;fill-opacity:1;fill-rule:nonzero;paint-order:fill"
       fill="#ffffff"
       sodipodi:nodetypes="cscscscsccccccccccssccccscsccccccccccccccccsccccccccccccccccssccccccscscccccccscc" />
  </g>
</svg>
